<svg version="1.1" id="Layer_1" xmlns="http://www.w3.org/2000/svg" xmlns:xlink="http://www.w3.org/1999/xlink" x="0px" y="0px" viewBox="0 0 500 500" style="width: 148px;" xml:space="preserve" data-imageid="data-center-46" imageName="Data Center" class="illustrations_image">
<style type="text/css">
	.st0_data-center-46{fill:#68E1FD;}
	.st1_data-center-46{fill:#093F68;}
	.st2_data-center-46{fill:#FFBC0E;}
	.st3_data-center-46{fill:#FFFFFF;}
</style>
<g id="data-2_data-center-46">
	<path class="st0_data-center-46 targetColor" d="M89.3,162.8h152.1c2.2,0,3.9,1.8,3.9,3.9V199c0,2.2-1.8,3.9-3.9,3.9H89.3c-2.2,0-3.9-1.8-3.9-3.9v-32.3&#10;&#9;&#9;C85.4,164.5,87.2,162.8,89.3,162.8z" style="fill: rgb(104, 225, 253);"/>
	<path class="st1_data-center-46" d="M238,204.8H92.8c-5.1,0-9.3-4.1-9.3-9.3v-25.4c0-5.1,4.1-9.3,9.3-9.3H238c5.1,0,9.3,4.2,9.3,9.3v25.4&#10;&#9;&#9;C247.3,200.7,243.1,204.8,238,204.8z M92.8,164.6c-3,0-5.5,2.5-5.5,5.5l0,0v25.4c0,3,2.5,5.5,5.5,5.5l0,0H238c3,0,5.5-2.5,5.5-5.5&#10;&#9;&#9;c0,0,0,0,0,0v-25.4c0-3-2.5-5.5-5.5-5.5c0,0,0,0,0,0H92.8z"/>
	<circle class="st2_data-center-46" cx="102.8" cy="182.9" r="6.1"/>
	<path class="st1_data-center-46" d="M102.8,190.9c-4.4,0-8-3.6-8-8s3.6-8,8-8s8,3.6,8,8S107.2,190.9,102.8,190.9z M102.8,178.6&#10;&#9;&#9;c-2.4,0-4.3,1.9-4.3,4.3c0,2.4,1.9,4.3,4.3,4.3c2.4,0,4.3-1.9,4.3-4.3c0,0,0,0,0,0C107,180.5,105.1,178.6,102.8,178.6z"/>
	<circle class="st1_data-center-46" cx="185.7" cy="182.9" r="6.1"/>
	<path class="st1_data-center-46" d="M185.8,190.9c-4.4,0-8-3.6-8-8s3.6-8,8-8s8,3.6,8,8S190.2,190.9,185.8,190.9z M185.8,178.6&#10;&#9;&#9;c-2.4,0-4.3,1.9-4.3,4.2c0,2.4,1.9,4.3,4.2,4.3c2.4,0,4.3-1.9,4.3-4.2c0,0,0,0,0,0C190,180.5,188.1,178.6,185.8,178.6z"/>
	<circle class="st1_data-center-46" cx="206.3" cy="182.9" r="6.1"/>
	<path class="st1_data-center-46" d="M206.3,190.9c-4.4,0-8-3.6-8-8s3.6-8,8-8s8,3.6,8,8S210.7,190.9,206.3,190.9z M206.3,178.6&#10;&#9;&#9;c-2.4,0-4.3,1.9-4.3,4.3c0,2.4,1.9,4.3,4.3,4.3s4.3-1.9,4.3-4.3c0,0,0,0,0,0C210.5,180.5,208.6,178.6,206.3,178.6z"/>
	<circle class="st1_data-center-46" cx="226.8" cy="182.9" r="6.1"/>
	<path class="st1_data-center-46" d="M226.8,190.9c-4.4,0-8-3.6-8-8s3.6-8,8-8s8,3.6,8,8S231.2,190.9,226.8,190.9z M226.8,178.6&#10;&#9;&#9;c-2.4,0-4.3,1.9-4.3,4.3c0,2.4,1.9,4.3,4.3,4.3s4.3-1.9,4.3-4.3c0,0,0,0,0,0C231.1,180.5,229.1,178.6,226.8,178.6z"/>
	<path class="st0_data-center-46 targetColor" d="M89.3,202.9h152.1c2.2,0,3.9,1.8,3.9,3.9v32.3c0,2.2-1.8,3.9-3.9,3.9H89.3c-2.2,0-3.9-1.8-3.9-3.9v-32.3&#10;&#9;&#9;C85.4,204.7,87.2,202.9,89.3,202.9z" style="fill: rgb(104, 225, 253);"/>
	<path class="st1_data-center-46" d="M238,245H92.8c-5.1,0-9.3-4.1-9.3-9.3v-25.4c0-5.1,4.1-9.3,9.3-9.3H238c5.1,0,9.2,4.2,9.3,9.3v25.4&#10;&#9;&#9;C247.3,240.9,243.1,245,238,245z M92.8,204.8c-3,0-5.5,2.5-5.5,5.5l0,0v25.4c0,3,2.5,5.5,5.5,5.5l0,0H238c3,0,5.5-2.5,5.5-5.5&#10;&#9;&#9;v-25.4c0-3-2.5-5.5-5.5-5.5H92.8z"/>
	<circle class="st2_data-center-46" cx="102.8" cy="223" r="6.1"/>
	<path class="st1_data-center-46" d="M102.8,231c-4.4,0-8-3.6-8-8s3.6-8,8-8s8,3.6,8,8S107.2,231,102.8,231z M102.8,218.7c-2.4,0-4.3,1.9-4.3,4.2&#10;&#9;&#9;c0,2.4,1.9,4.3,4.2,4.3c2.4,0,4.3-1.9,4.3-4.2c0,0,0,0,0,0C107,220.7,105.1,218.8,102.8,218.7L102.8,218.7z"/>
	<circle class="st1_data-center-46" cx="185.7" cy="223" r="6.1"/>
	<path class="st1_data-center-46" d="M185.8,231c-4.4,0-8-3.6-8-8s3.6-8,8-8s8,3.6,8,8S190.2,231,185.8,231z M185.8,218.7c-2.4,0-4.3,1.9-4.3,4.2&#10;&#9;&#9;c0,2.4,1.9,4.3,4.2,4.3c2.4,0,4.3-1.9,4.3-4.2c0,0,0,0,0,0C190,220.7,188.1,218.8,185.8,218.7L185.8,218.7z"/>
	<circle class="st1_data-center-46" cx="206.3" cy="223" r="6.1"/>
	<path class="st1_data-center-46" d="M206.3,231c-4.4,0-8-3.6-8-8s3.6-8,8-8s8,3.6,8,8S210.7,231,206.3,231z M206.3,218.7c-2.4,0-4.3,1.9-4.3,4.3&#10;&#9;&#9;s1.9,4.3,4.3,4.3c2.4,0,4.3-1.9,4.3-4.3v0C210.5,220.7,208.6,218.8,206.3,218.7L206.3,218.7z"/>
	<circle class="st1_data-center-46" cx="226.8" cy="223" r="6.1"/>
	<path class="st1_data-center-46" d="M226.8,231c-4.4,0-8-3.6-8-8s3.6-8,8-8s8,3.6,8,8S231.2,231,226.8,231z M226.8,218.7c-2.4,0-4.3,1.9-4.3,4.3&#10;&#9;&#9;s1.9,4.3,4.3,4.3c2.4,0,4.3-1.9,4.3-4.3v0C231,220.7,229.1,218.8,226.8,218.7L226.8,218.7z"/>
	<path class="st0_data-center-46 targetColor" d="M89.3,243.1h152.1c2.2,0,3.9,1.8,3.9,3.9v32.3c0,2.2-1.8,4-3.9,4H89.3c-2.2,0-3.9-1.8-3.9-4v-32.3&#10;&#9;&#9;C85.4,244.9,87.2,243.1,89.3,243.1z" style="fill: rgb(104, 225, 253);"/>
	<path class="st1_data-center-46" d="M238,285.2H92.8c-5.1,0-9.3-4.1-9.3-9.3v-25.4c0-5.1,4.1-9.3,9.3-9.3H238c5.1,0,9.3,4.1,9.3,9.3v25.4&#10;&#9;&#9;C247.2,281,243.1,285.2,238,285.2z M92.8,245c-3,0-5.5,2.5-5.5,5.5l0,0v25.4c0,3,2.5,5.5,5.5,5.5H238c3,0,5.5-2.5,5.5-5.5v-25.4&#10;&#9;&#9;c0-3-2.5-5.5-5.5-5.5H92.8z"/>
	<circle class="st2_data-center-46" cx="102.8" cy="263.2" r="6.1"/>
	<path class="st1_data-center-46" d="M102.8,271.2c-4.4,0-8-3.6-8-8s3.6-8,8-8s8,3.6,8,8S107.2,271.2,102.8,271.2z M102.8,259&#10;&#9;&#9;c-2.4,0-4.3,1.9-4.3,4.3c0,2.4,1.9,4.3,4.3,4.3s4.3-1.9,4.3-4.3C107,260.9,105.1,259,102.8,259L102.8,259z"/>
	<circle class="st1_data-center-46" cx="185.7" cy="263.2" r="6.1"/>
	<path class="st1_data-center-46" d="M185.8,271.2c-4.4,0-8-3.6-8-8s3.6-8,8-8s8,3.6,8,8S190.2,271.2,185.8,271.2z M185.8,259&#10;&#9;&#9;c-2.4,0-4.3,1.9-4.3,4.2c0,2.4,1.9,4.3,4.2,4.3c2.4,0,4.3-1.9,4.3-4.2c0,0,0,0,0,0C190,260.9,188.1,259,185.8,259L185.8,259z"/>
	<circle class="st1_data-center-46" cx="206.3" cy="263.2" r="6.1"/>
	<path class="st1_data-center-46" d="M206.3,271.2c-4.4,0-8-3.6-8-8s3.6-8,8-8s8,3.6,8,8S210.7,271.2,206.3,271.2z M206.3,259&#10;&#9;&#9;c-2.4,0-4.3,1.9-4.3,4.3c0,2.4,1.9,4.3,4.3,4.3c2.4,0,4.3-1.9,4.3-4.3C210.5,260.9,208.6,259,206.3,259L206.3,259z"/>
	<circle class="st1_data-center-46" cx="226.8" cy="263.2" r="6.1"/>
	<path class="st1_data-center-46" d="M226.8,271.2c-4.4,0-8-3.6-8-8s3.6-8,8-8s8,3.6,8,8S231.2,271.2,226.8,271.2z M226.8,259&#10;&#9;&#9;c-2.4,0-4.3,1.9-4.3,4.3c0,2.4,1.9,4.3,4.3,4.3c2.4,0,4.3-1.9,4.3-4.3C231,260.9,229.1,259,226.8,259L226.8,259z"/>
	<path class="st0_data-center-46 targetColor" d="M89.3,283.3h152.1c2.2,0,3.9,1.8,3.9,4v32.3c0,2.2-1.8,4-3.9,4H89.3c-2.2,0-3.9-1.8-3.9-4v-32.3&#10;&#9;&#9;C85.4,285.1,87.2,283.3,89.3,283.3z" style="fill: rgb(104, 225, 253);"/>
	<path class="st1_data-center-46" d="M238,325.4H92.8c-5.1,0-9.3-4.1-9.3-9.3v-25.4c0-5.1,4.1-9.3,9.3-9.3H238c5.1,0,9.3,4.2,9.3,9.3v25.4&#10;&#9;&#9;C247.3,321.2,243.1,325.3,238,325.4z M92.8,285.2c-3,0-5.5,2.5-5.5,5.5v25.4c0,3,2.5,5.5,5.5,5.5H238c3,0,5.5-2.5,5.5-5.5v-25.4&#10;&#9;&#9;c0-3-2.5-5.5-5.5-5.5L92.8,285.2z"/>
	<circle class="st2_data-center-46" cx="102.8" cy="303.4" r="6.1"/>
	<path class="st1_data-center-46" d="M102.8,311.4c-4.4,0-8-3.6-8-8s3.6-8,8-8s8,3.6,8,8S107.2,311.4,102.8,311.4z M102.8,299.1&#10;&#9;&#9;c-2.4,0-4.3,1.9-4.3,4.3s1.9,4.3,4.3,4.3c2.4,0,4.3-1.9,4.3-4.3c0,0,0,0,0,0C107,301,105.1,299.1,102.8,299.1L102.8,299.1z"/>
	<circle class="st1_data-center-46" cx="185.7" cy="303.4" r="6.1"/>
	<path class="st1_data-center-46" d="M185.8,311.4c-4.4,0-8-3.6-8-8s3.6-8,8-8s8,3.6,8,8S190.2,311.4,185.8,311.4z M185.8,299.1&#10;&#9;&#9;c-2.4,0-4.3,1.9-4.3,4.2c0,2.4,1.9,4.3,4.2,4.3c2.4,0,4.3-1.9,4.3-4.2c0,0,0,0,0,0C190,301,188.1,299.1,185.8,299.1L185.8,299.1z"/>
	<circle class="st1_data-center-46" cx="206.3" cy="303.4" r="6.1"/>
	<path class="st1_data-center-46" d="M206.3,311.4c-4.4,0-8-3.6-8-8s3.6-8,8-8s8,3.6,8,8S210.7,311.4,206.3,311.4z M206.3,299.1&#10;&#9;&#9;c-2.4,0-4.3,1.9-4.3,4.3s1.9,4.3,4.3,4.3s4.3-1.9,4.3-4.3c0,0,0,0,0,0C210.5,301,208.6,299.1,206.3,299.1L206.3,299.1z"/>
	<circle class="st1_data-center-46" cx="226.8" cy="303.4" r="6.1"/>
	<path class="st1_data-center-46" d="M226.8,311.4c-4.4,0-8-3.6-8-8s3.6-8,8-8s8,3.6,8,8S231.2,311.4,226.8,311.4z M226.8,299.1&#10;&#9;&#9;c-2.4,0-4.3,1.9-4.3,4.3s1.9,4.3,4.3,4.3s4.3-1.9,4.3-4.3c0,0,0,0,0,0C231.1,301,229.1,299.1,226.8,299.1L226.8,299.1z"/>
	<path class="st1_data-center-46" d="M82.1,323.5h166.6c2.2,0,4.1,1.8,4.1,4.1v12.3c0,2.2-1.8,4.1-4.1,4.1H82.1c-2.2,0-4.1-1.8-4.1-4.1v-12.3&#10;&#9;&#9;C78.1,325.3,79.9,323.5,82.1,323.5z"/>
	<path class="st1_data-center-46" d="M245.1,345.8H85.7c-5.2,0-9.5-4.2-9.5-9.5v-5.2c0-5.2,4.2-9.5,9.5-9.5h159.5c5.2,0,9.5,4.2,9.5,9.5v5.2&#10;&#9;&#9;C254.6,341.5,250.3,345.8,245.1,345.8z M85.7,325.4c-3.2,0-5.7,2.6-5.7,5.7v5.2c0,3.1,2.6,5.7,5.7,5.7h159.5c3.2,0,5.7-2.6,5.7-5.7&#10;&#9;&#9;V331c0-3.2-2.6-5.7-5.7-5.7L85.7,325.4z"/>
</g>
<g id="data-3_data-center-46">
	<path class="st0_data-center-46 targetColor" d="M258.6,162.8h152.1c2.2,0,4,1.8,4,3.9V199c0,2.2-1.8,3.9-4,3.9H258.6c-2.2,0-4-1.8-4-3.9v-32.3&#10;&#9;&#9;C254.6,164.5,256.4,162.8,258.6,162.8z" style="fill: rgb(104, 225, 253);"/>
	<path class="st1_data-center-46" d="M407.2,204.8H262c-5.1,0-9.3-4.1-9.3-9.3v-25.4c0-5.1,4.1-9.3,9.3-9.3h145.2c5.1,0,9.3,4.2,9.3,9.3v25.4&#10;&#9;&#9;C416.5,200.7,412.3,204.8,407.2,204.8z M262,164.6c-3,0-5.5,2.5-5.5,5.5v25.4c0,3,2.5,5.5,5.5,5.5h145.2c3,0,5.5-2.5,5.5-5.5v-25.4&#10;&#9;&#9;c0-3-2.5-5.5-5.5-5.5H262z"/>
	<circle class="st2_data-center-46" cx="272" cy="182.9" r="6.1"/>
	<path class="st1_data-center-46" d="M272,190.9c-4.4,0-8-3.6-8-8s3.6-8,8-8s8,3.6,8,8S276.4,190.9,272,190.9z M272,178.6c-2.4,0-4.3,1.9-4.3,4.2&#10;&#9;&#9;c0,2.4,1.9,4.3,4.2,4.3c2.4,0,4.3-1.9,4.3-4.2c0,0,0,0,0,0C276.2,180.5,274.3,178.6,272,178.6z"/>
	<circle class="st3_data-center-46" cx="355" cy="182.9" r="6.1"/>
	<path class="st1_data-center-46" d="M355,190.9c-4.4,0-8-3.6-8-8s3.6-8,8-8s8,3.6,8,8S359.4,190.9,355,190.9z M355,178.6c-2.4,0-4.3,1.9-4.3,4.3&#10;&#9;&#9;c0,2.4,1.9,4.3,4.3,4.3c2.4,0,4.3-1.9,4.3-4.3c0,0,0,0,0,0C359.3,180.5,357.3,178.6,355,178.6z"/>
	<circle class="st3_data-center-46" cx="375.5" cy="182.9" r="6.1"/>
	<path class="st1_data-center-46" d="M375.5,190.9c-4.4,0-8-3.6-8-8s3.6-8,8-8s8,3.6,8,8S379.9,190.9,375.5,190.9z M375.5,178.6&#10;&#9;&#9;c-2.4,0-4.3,1.9-4.3,4.3c0,2.4,1.9,4.3,4.3,4.3c2.4,0,4.3-1.9,4.3-4.3c0,0,0,0,0,0C379.8,180.5,377.9,178.6,375.5,178.6z"/>
	<circle class="st3_data-center-46" cx="396" cy="182.9" r="6.1"/>
	<path class="st1_data-center-46" d="M396,190.9c-4.4,0-8-3.6-8-8s3.6-8,8-8s8,3.6,8,8S400.4,190.9,396,190.9z M396,178.6c-2.4,0-4.3,1.9-4.3,4.3&#10;&#9;&#9;c0,2.4,1.9,4.3,4.3,4.3c2.4,0,4.3-1.9,4.3-4.3c0,0,0,0,0,0C400.3,180.5,398.3,178.6,396,178.6z"/>
	<path class="st0_data-center-46 targetColor" d="M258.6,202.9h152.1c2.2,0,4,1.8,4,3.9v32.3c0,2.2-1.8,3.9-4,3.9H258.6c-2.2,0-4-1.8-4-3.9v-32.3&#10;&#9;&#9;C254.6,204.7,256.4,202.9,258.6,202.9z" style="fill: rgb(104, 225, 253);"/>
	<path class="st1_data-center-46" d="M407.2,245H262c-5.1,0-9.3-4.1-9.3-9.3v-25.4c0-5.1,4.2-9.2,9.3-9.3h145.2c5.1,0,9.3,4.1,9.3,9.3v25.4&#10;&#9;&#9;C416.5,240.9,412.3,245,407.2,245z M262,204.8c-3,0-5.5,2.5-5.5,5.5v25.4c0,3,2.5,5.5,5.5,5.5h145.2c3,0,5.5-2.5,5.5-5.5v-25.4&#10;&#9;&#9;c0-3-2.5-5.5-5.5-5.5H262z"/>
	<circle class="st2_data-center-46" cx="272" cy="223" r="6.1"/>
	<path class="st1_data-center-46" d="M272,231c-4.4,0-8-3.6-8-8s3.6-8,8-8s8,3.6,8,8S276.4,231,272,231z M272,218.7c-2.4,0-4.3,1.9-4.3,4.2&#10;&#9;&#9;c0,2.4,1.9,4.3,4.2,4.3c2.4,0,4.3-1.9,4.3-4.2c0,0,0,0,0,0C276.2,220.7,274.3,218.8,272,218.7L272,218.7z"/>
	<circle class="st3_data-center-46" cx="355" cy="223" r="6.1"/>
	<path class="st1_data-center-46" d="M355,231c-4.4,0-8-3.6-8-8s3.6-8,8-8s8,3.6,8,8S359.4,231,355,231z M355,218.7c-2.4,0-4.3,1.9-4.3,4.3&#10;&#9;&#9;c0,2.4,1.9,4.3,4.3,4.3c2.4,0,4.3-1.9,4.3-4.3C359.2,220.7,357.3,218.8,355,218.7L355,218.7z"/>
	<circle class="st3_data-center-46" cx="375.5" cy="223" r="6.1"/>
	<path class="st1_data-center-46" d="M375.5,231c-4.4,0-8-3.6-8-8s3.6-8,8-8s8,3.6,8,8S379.9,231,375.5,231z M375.5,218.7c-2.4,0-4.3,1.9-4.3,4.3&#10;&#9;&#9;c0,2.4,1.9,4.3,4.3,4.3c2.4,0,4.3-1.9,4.3-4.3C379.7,220.7,377.8,218.8,375.5,218.7L375.5,218.7z"/>
	<circle class="st3_data-center-46" cx="396" cy="223" r="6.1"/>
	<path class="st1_data-center-46" d="M396,231c-4.4,0-8-3.6-8-8s3.6-8,8-8s8,3.6,8,8S400.4,231,396,231z M396,218.7c-2.4,0-4.2,1.9-4.2,4.3&#10;&#9;&#9;c0,2.4,1.9,4.2,4.3,4.2c2.3,0,4.2-1.9,4.2-4.3C400.3,220.6,398.4,218.8,396,218.7C396,218.8,396,218.8,396,218.7L396,218.7z"/>
	<path class="st0_data-center-46 targetColor" d="M258.6,243.1h152.1c2.2,0,4,1.8,4,3.9v32.3c0,2.2-1.8,4-4,4H258.6c-2.2,0-4-1.8-4-4v-32.3&#10;&#9;&#9;C254.6,244.9,256.4,243.1,258.6,243.1z" style="fill: rgb(104, 225, 253);"/>
	<path class="st1_data-center-46" d="M407.2,285.2H262c-5.1,0-9.2-4.2-9.3-9.3v-25.4c0-5.1,4.1-9.3,9.3-9.3h145.2c5.1,0,9.3,4.1,9.3,9.3v25.4&#10;&#9;&#9;C416.5,281,412.3,285.2,407.2,285.2z M262,245c-3,0-5.5,2.5-5.5,5.5v25.4c0,3,2.5,5.5,5.5,5.5h145.2c3,0,5.5-2.5,5.5-5.5v-25.4&#10;&#9;&#9;c0-3-2.5-5.5-5.5-5.5L262,245z"/>
	<circle class="st2_data-center-46" cx="272" cy="263.2" r="6.1"/>
	<path class="st1_data-center-46" d="M272,271.2c-4.4,0-8-3.6-8-8s3.6-8,8-8s8,3.6,8,8S276.4,271.2,272,271.2z M272,259c-2.4,0-4.3,1.9-4.3,4.2&#10;&#9;&#9;c0,2.4,1.9,4.3,4.2,4.3c2.4,0,4.3-1.9,4.3-4.2c0,0,0,0,0,0C276.2,260.9,274.3,259,272,259z"/>
	<circle class="st3_data-center-46" cx="355" cy="263.2" r="6.1"/>
	<path class="st1_data-center-46" d="M355,271.2c-4.4,0-8-3.6-8-8s3.6-8,8-8s8,3.6,8,8S359.4,271.2,355,271.2z M355,259c-2.4,0-4.3,1.9-4.3,4.3&#10;&#9;&#9;c0,2.4,1.9,4.3,4.3,4.3c2.4,0,4.3-1.9,4.3-4.3S357.4,259,355,259C355,259,355,259,355,259z"/>
	<circle class="st3_data-center-46" cx="375.5" cy="263.2" r="6.1"/>
	<path class="st1_data-center-46" d="M375.5,271.2c-4.4,0-8-3.6-8-8s3.6-8,8-8s8,3.6,8,8S379.9,271.2,375.5,271.2z M375.5,259&#10;&#9;&#9;c-2.4,0-4.3,1.9-4.3,4.3c0,2.4,1.9,4.3,4.3,4.3c2.4,0,4.3-1.9,4.3-4.3C379.7,260.9,377.8,259,375.5,259L375.5,259z"/>
	<circle class="st3_data-center-46" cx="396" cy="263.2" r="6.1"/>
	<path class="st1_data-center-46" d="M396,271.2c-4.4,0-8-3.6-8-8s3.6-8,8-8s8,3.6,8,8S400.4,271.2,396,271.2z M396,259c-2.4,0-4.3,1.9-4.3,4.3&#10;&#9;&#9;c0,2.4,1.9,4.3,4.3,4.3c2.4,0,4.3-1.9,4.3-4.3S398.4,259,396,259C396,259,396,259,396,259z"/>
	<path class="st0_data-center-46 targetColor" d="M258.6,283.3h152.1c2.2,0,4,1.8,4,4v32.3c0,2.2-1.8,4-4,4H258.6c-2.2,0-4-1.8-4-4v-32.3&#10;&#9;&#9;C254.6,285.1,256.4,283.3,258.6,283.3z" style="fill: rgb(104, 225, 253);"/>
	<path class="st1_data-center-46" d="M407.2,325.4H262c-5.1,0-9.3-4.1-9.3-9.3v-25.4c0-5.1,4.1-9.3,9.3-9.3h145.2c5.1,0,9.3,4.2,9.3,9.3v25.4&#10;&#9;&#9;C416.5,321.2,412.3,325.3,407.2,325.4z M262,285.2c-3,0-5.5,2.5-5.5,5.5v25.4c0,3,2.5,5.5,5.5,5.5h145.2c3,0,5.5-2.5,5.5-5.5v-25.4&#10;&#9;&#9;c0-3-2.5-5.5-5.5-5.5L262,285.2z"/>
	<circle class="st2_data-center-46" cx="272" cy="303.4" r="6.1"/>
	<path class="st1_data-center-46" d="M272,311.4c-4.4,0-8-3.6-8-8s3.6-8,8-8s8,3.6,8,8S276.4,311.4,272,311.4z M272,299.1c-2.4,0-4.3,1.9-4.3,4.2&#10;&#9;&#9;c0,2.4,1.9,4.3,4.2,4.3c2.4,0,4.3-1.9,4.3-4.2c0,0,0,0,0,0C276.2,301,274.3,299.1,272,299.1L272,299.1z"/>
	<circle class="st3_data-center-46" cx="355" cy="303.4" r="6.1"/>
	<path class="st1_data-center-46" d="M355,311.4c-4.4,0-8-3.6-8-8s3.6-8,8-8s8,3.6,8,8S359.4,311.4,355,311.4z M355,299.1c-2.4,0-4.3,1.9-4.3,4.3&#10;&#9;&#9;c0,2.4,1.9,4.3,4.3,4.3c2.4,0,4.3-1.9,4.3-4.3c0,0,0,0,0,0C359.3,301,357.3,299.1,355,299.1L355,299.1z"/>
	<circle class="st3_data-center-46" cx="375.5" cy="303.4" r="6.1"/>
	<path class="st1_data-center-46" d="M375.5,311.4c-4.4,0-8-3.6-8-8s3.6-8,8-8s8,3.6,8,8S379.9,311.4,375.5,311.4z M375.5,299.1&#10;&#9;&#9;c-2.4,0-4.3,1.9-4.3,4.3c0,2.4,1.9,4.3,4.3,4.3c2.4,0,4.3-1.9,4.3-4.3c0,0,0,0,0,0C379.8,301,377.9,299.1,375.5,299.1L375.5,299.1z&#10;&#9;&#9;"/>
	<circle class="st3_data-center-46" cx="396" cy="303.4" r="6.1"/>
	<path class="st1_data-center-46" d="M396,311.4c-4.4,0-8-3.6-8-8s3.6-8,8-8s8,3.6,8,8S400.4,311.4,396,311.4z M396,299.1c-2.4,0-4.3,1.9-4.3,4.3&#10;&#9;&#9;c0,2.4,1.9,4.3,4.3,4.3c2.4,0,4.3-1.9,4.3-4.3c0,0,0,0,0,0C400.3,301,398.3,299.1,396,299.1L396,299.1z"/>
	<path class="st1_data-center-46" d="M251.3,323.5h166.6c2.2,0,4.1,1.8,4.1,4.1v12.3c0,2.2-1.8,4.1-4.1,4.1H251.3c-2.2,0-4.1-1.8-4.1-4.1v-12.3&#10;&#9;&#9;C247.3,325.3,249.1,323.5,251.3,323.5z"/>
	<path class="st1_data-center-46" d="M414.4,345.8H254.9c-5.2,0-9.5-4.2-9.5-9.5v-5.2c0-5.2,4.2-9.5,9.5-9.5h159.5c5.2,0,9.5,4.3,9.5,9.5v5.2&#10;&#9;&#9;C423.8,341.5,419.6,345.8,414.4,345.8z M254.9,325.4c-3.2,0-5.7,2.6-5.7,5.7v5.2c0,3.2,2.6,5.7,5.7,5.7h159.5&#10;&#9;&#9;c3.2,0,5.7-2.6,5.7-5.7v-5.2c0-3.2-2.6-5.7-5.7-5.7H254.9z"/>
</g>
<g id="data-1_data-center-46">
	<path class="st0_data-center-46 targetColor" d="M167,129.2H333c2.4,0,4.3,1.9,4.3,4.3v35.2c0,2.4-1.9,4.3-4.3,4.3H167c-2.4,0-4.3-1.9-4.3-4.3v-35.2&#10;&#9;&#9;C162.7,131.1,164.6,129.2,167,129.2z" style="fill: rgb(104, 225, 253);"/>
	<path class="st1_data-center-46" d="M329.3,174.9H170.7c-5.5,0-9.9-4.4-9.9-9.9v-27.7c0-5.5,4.4-9.9,9.9-9.9h158.5c5.5,0,9.9,4.5,9.9,9.9V165&#10;&#9;&#9;C339.2,170.5,334.8,174.9,329.3,174.9z M170.7,131.1c-3.4,0-6.2,2.8-6.2,6.2V165c0,3.4,2.8,6.2,6.2,6.2h158.5&#10;&#9;&#9;c3.4,0,6.2-2.8,6.2-6.2v-27.7c0-3.4-2.8-6.2-6.2-6.2H170.7z"/>
	<circle class="st2_data-center-46" cx="181.6" cy="151.1" r="6.7"/>
	<path class="st1_data-center-46" d="M181.6,159.7c-4.7,0-8.6-3.8-8.6-8.6s3.8-8.6,8.6-8.6s8.6,3.8,8.6,8.6S186.4,159.7,181.6,159.7L181.6,159.7z&#10;&#9;&#9; M181.6,146.3c-2.7,0-4.8,2.2-4.8,4.8s2.2,4.8,4.8,4.8c2.7,0,4.8-2.2,4.8-4.8C186.4,148.5,184.3,146.3,181.6,146.3z"/>
	<circle class="st3_data-center-46" cx="272.2" cy="151.1" r="6.7"/>
	<path class="st1_data-center-46" d="M272.2,159.7c-4.7,0-8.6-3.8-8.6-8.6s3.8-8.6,8.6-8.6c4.7,0,8.6,3.8,8.6,8.6c0,0,0,0,0,0&#10;&#9;&#9;C280.8,155.8,277,159.7,272.2,159.7z M272.2,146.3c-2.7,0-4.8,2.2-4.8,4.8c0,2.7,2.2,4.8,4.8,4.8c2.7,0,4.8-2.2,4.8-4.8&#10;&#9;&#9;C277,148.5,274.9,146.3,272.2,146.3z"/>
	<circle class="st3_data-center-46" cx="294.6" cy="151.1" r="6.7"/>
	<path class="st1_data-center-46" d="M294.6,159.7c-4.7,0-8.6-3.8-8.6-8.6c0-4.7,3.8-8.6,8.6-8.6c4.7,0,8.6,3.8,8.6,8.6S299.4,159.7,294.6,159.7&#10;&#9;&#9;C294.6,159.7,294.6,159.7,294.6,159.7z M294.6,146.3c-2.7,0-4.8,2.2-4.8,4.8c0,2.7,2.2,4.8,4.8,4.8c2.7,0,4.8-2.2,4.8-4.8&#10;&#9;&#9;C299.5,148.5,297.3,146.3,294.6,146.3z"/>
	<circle class="st3_data-center-46" cx="317" cy="151.1" r="6.7"/>
	<path class="st1_data-center-46" d="M317,159.7c-4.7,0-8.6-3.8-8.6-8.6c0-4.7,3.8-8.6,8.6-8.6c4.7,0,8.6,3.8,8.6,8.6S321.8,159.7,317,159.7&#10;&#9;&#9;C317,159.7,317,159.7,317,159.7z M317,146.3c-2.7,0-4.8,2.2-4.8,4.8c0,2.7,2.2,4.8,4.8,4.8c2.7,0,4.8-2.2,4.8-4.8&#10;&#9;&#9;C321.9,148.5,319.7,146.3,317,146.3z"/>
	<path class="st0_data-center-46 targetColor" d="M167,173.1H333c2.4,0,4.3,1.9,4.3,4.3v35.2c0,2.4-1.9,4.3-4.3,4.3H167c-2.4,0-4.3-1.9-4.3-4.3v-35.2&#10;&#9;&#9;C162.7,175,164.6,173.1,167,173.1z" style="fill: rgb(104, 225, 253);"/>
	<path class="st1_data-center-46" d="M329.3,218.8H170.7c-5.5,0-9.9-4.5-9.9-9.9v-27.7c0-5.5,4.4-9.9,9.9-9.9h158.5c5.5,0,9.9,4.5,9.9,9.9v27.7&#10;&#9;&#9;C339.2,214.3,334.8,218.8,329.3,218.8z M170.7,174.9c-3.4,0-6.2,2.8-6.2,6.2v27.7c0,3.4,2.8,6.2,6.2,6.2h158.5&#10;&#9;&#9;c3.4,0,6.2-2.8,6.2-6.2v-27.7c0-3.4-2.8-6.2-6.2-6.2H170.7z"/>
	<circle class="st2_data-center-46" cx="181.6" cy="195" r="6.7"/>
	<path class="st1_data-center-46" d="M181.6,203.6c-4.7,0-8.6-3.8-8.6-8.6c0-4.7,3.8-8.6,8.6-8.6s8.6,3.8,8.6,8.6c0,0,0,0,0,0&#10;&#9;&#9;C190.2,199.7,186.3,203.6,181.6,203.6z M181.6,190.2c-2.7,0-4.8,2.2-4.8,4.8s2.2,4.8,4.8,4.8c2.7,0,4.8-2.2,4.8-4.8&#10;&#9;&#9;C186.4,192.3,184.3,190.2,181.6,190.2L181.6,190.2z"/>
	<circle class="st3_data-center-46" cx="272.2" cy="195" r="6.7"/>
	<path class="st1_data-center-46" d="M272.2,203.6c-4.7,0-8.6-3.8-8.6-8.6s3.8-8.6,8.6-8.6c4.7,0,8.6,3.8,8.6,8.6c0,0,0,0,0,0&#10;&#9;&#9;C280.8,199.7,277,203.5,272.2,203.6z M272.2,190.2c-2.7,0-4.8,2.2-4.8,4.8c0,2.7,2.2,4.8,4.8,4.8c2.7,0,4.8-2.2,4.8-4.8&#10;&#9;&#9;C277.1,192.3,274.9,190.2,272.2,190.2L272.2,190.2z"/>
	<circle class="st3_data-center-46" cx="294.6" cy="195" r="6.7"/>
	<path class="st1_data-center-46" d="M294.6,203.6c-4.7,0-8.6-3.8-8.6-8.6c0-4.7,3.8-8.6,8.6-8.6c4.7,0,8.6,3.8,8.6,8.6c0,0,0,0,0,0&#10;&#9;&#9;C303.2,199.7,299.4,203.6,294.6,203.6z M294.6,190.2c-2.7,0-4.8,2.2-4.8,4.8c0,2.7,2.2,4.8,4.8,4.8c2.7,0,4.8-2.2,4.8-4.8&#10;&#9;&#9;C299.5,192.3,297.3,190.2,294.6,190.2L294.6,190.2z"/>
	<circle class="st3_data-center-46" cx="317" cy="195" r="6.7"/>
	<path class="st1_data-center-46" d="M317,203.6c-4.7,0-8.6-3.8-8.6-8.6c0-4.7,3.8-8.6,8.6-8.6c4.7,0,8.6,3.8,8.6,8.6c0,0,0,0,0,0&#10;&#9;&#9;C325.6,199.7,321.8,203.6,317,203.6z M317,190.2c-2.7,0-4.8,2.2-4.8,4.8c0,2.7,2.2,4.8,4.8,4.8c2.7,0,4.8-2.2,4.8-4.8&#10;&#9;&#9;C321.9,192.3,319.7,190.2,317,190.2z"/>
	<path class="st0_data-center-46 targetColor" d="M167,216.9H333c2.4,0,4.3,1.9,4.3,4.3v35.2c0,2.4-1.9,4.3-4.3,4.3H167c-2.4,0-4.3-1.9-4.3-4.3v-35.2&#10;&#9;&#9;C162.7,218.8,164.6,216.9,167,216.9z" style="fill: rgb(104, 225, 253);"/>
	<path class="st1_data-center-46" d="M329.3,262.6H170.7c-5.5,0-9.9-4.5-9.9-9.9V225c0-5.5,4.4-9.9,9.9-9.9h158.5c5.5,0,9.9,4.4,9.9,9.9v27.7&#10;&#9;&#9;C339.2,258.2,334.7,262.6,329.3,262.6z M170.7,218.8c-3.4,0-6.2,2.8-6.2,6.2v27.7c0,3.4,2.8,6.2,6.2,6.2h158.5&#10;&#9;&#9;c3.4,0,6.2-2.8,6.2-6.2V225c0-3.4-2.8-6.2-6.2-6.2L170.7,218.8z"/>
	<circle class="st2_data-center-46" cx="181.6" cy="238.9" r="6.7"/>
	<path class="st1_data-center-46" d="M181.6,247.4c-4.7,0-8.6-3.8-8.5-8.6s3.8-8.6,8.6-8.5c4.7,0,8.5,3.8,8.5,8.6&#10;&#9;&#9;C190.2,243.6,186.3,247.4,181.6,247.4z M181.6,234c-2.7,0-4.8,2.2-4.8,4.8s2.2,4.8,4.8,4.8c2.7,0,4.8-2.2,4.8-4.8&#10;&#9;&#9;C186.5,236.2,184.3,234,181.6,234C181.6,234,181.6,234,181.6,234L181.6,234z"/>
	<circle class="st3_data-center-46" cx="272.2" cy="238.9" r="6.7"/>
	<path class="st1_data-center-46" d="M272.2,247.4c-4.7,0-8.6-3.8-8.6-8.6s3.8-8.6,8.6-8.6c4.7,0,8.6,3.8,8.6,8.6l0,0&#10;&#9;&#9;C280.8,243.6,277,247.4,272.2,247.4z M272.2,234c-2.7,0-4.8,2.2-4.8,4.8c0,2.7,2.2,4.8,4.8,4.8c2.7,0,4.8-2.2,4.8-4.8&#10;&#9;&#9;C277.1,236.2,274.9,234,272.2,234C272.3,234,272.2,234,272.2,234L272.2,234z"/>
	<circle class="st3_data-center-46" cx="294.6" cy="238.9" r="6.7"/>
	<path class="st1_data-center-46" d="M294.6,247.4c-4.7,0-8.6-3.8-8.5-8.6s3.8-8.6,8.6-8.5c4.7,0,8.5,3.8,8.5,8.6&#10;&#9;&#9;C303.2,243.6,299.4,247.4,294.6,247.4z M294.6,234c-2.7,0-4.8,2.2-4.8,4.8c0,2.7,2.2,4.8,4.8,4.8c2.7,0,4.8-2.2,4.8-4.8&#10;&#9;&#9;C299.5,236.2,297.3,234,294.6,234C294.7,234,294.7,234,294.6,234L294.6,234z"/>
	<circle class="st3_data-center-46" cx="317" cy="238.9" r="6.7"/>
	<path class="st1_data-center-46" d="M317,247.4c-4.7,0-8.6-3.8-8.5-8.6s3.8-8.6,8.6-8.5c4.7,0,8.5,3.8,8.5,8.6C325.6,243.6,321.8,247.4,317,247.4z&#10;&#9;&#9; M317,234c-2.7,0-4.8,2.2-4.8,4.8c0,2.7,2.2,4.8,4.8,4.8c2.7,0,4.8-2.2,4.8-4.8C321.9,236.2,319.7,234,317,234&#10;&#9;&#9;C317.1,234,317.1,234,317,234L317,234z"/>
	<path class="st0_data-center-46 targetColor" d="M167,260.8H333c2.4,0,4.3,1.9,4.3,4.3v35.2c0,2.4-1.9,4.3-4.3,4.3H167c-2.4,0-4.3-1.9-4.3-4.3v-35.2&#10;&#9;&#9;C162.7,262.7,164.6,260.8,167,260.8z" style="fill: rgb(104, 225, 253);"/>
	<path class="st1_data-center-46" d="M329.3,306.5H170.7c-5.5,0-9.9-4.4-9.9-9.9v-27.7c0-5.5,4.4-9.9,9.9-9.9h158.5c5.5,0,9.9,4.5,9.9,9.9v27.7&#10;&#9;&#9;C339.2,302.1,334.8,306.5,329.3,306.5z M170.7,262.6c-3.4,0-6.2,2.8-6.2,6.2v27.7c0,3.4,2.8,6.2,6.2,6.2h158.5&#10;&#9;&#9;c3.4,0,6.2-2.8,6.2-6.2v-27.7c0-3.4-2.8-6.2-6.2-6.2H170.7z"/>
	<circle class="st2_data-center-46" cx="181.6" cy="282.7" r="6.7"/>
	<path class="st1_data-center-46" d="M181.6,291.3c-4.7,0-8.6-3.8-8.5-8.6c0-4.7,3.8-8.6,8.6-8.5c4.7,0,8.5,3.8,8.5,8.6&#10;&#9;&#9;C190.2,287.4,186.3,291.3,181.6,291.3z M181.6,277.9c-2.7,0-4.8,2.2-4.8,4.8s2.2,4.8,4.8,4.8c2.7,0,4.8-2.2,4.8-4.8&#10;&#9;&#9;C186.4,280,184.3,277.9,181.6,277.9L181.6,277.9z"/>
	<circle class="st3_data-center-46" cx="272.2" cy="282.7" r="6.7"/>
	<path class="st1_data-center-46" d="M272.2,291.3c-4.7,0-8.6-3.8-8.6-8.6s3.8-8.6,8.6-8.6c4.7,0,8.6,3.8,8.6,8.6l0,0&#10;&#9;&#9;C280.8,287.4,277,291.3,272.2,291.3z M272.2,277.9c-2.7,0-4.8,2.2-4.8,4.8c0,2.7,2.2,4.8,4.8,4.8c2.7,0,4.8-2.2,4.8-4.8&#10;&#9;&#9;S274.9,277.9,272.2,277.9L272.2,277.9z"/>
	<circle class="st3_data-center-46" cx="294.6" cy="282.7" r="6.7"/>
	<path class="st1_data-center-46" d="M294.6,291.3c-4.7,0-8.6-3.8-8.5-8.6c0-4.7,3.8-8.6,8.6-8.5c4.7,0,8.5,3.8,8.5,8.6&#10;&#9;&#9;C303.2,287.4,299.4,291.3,294.6,291.3z M294.6,277.9c-2.7,0-4.8,2.2-4.8,4.8c0,2.7,2.2,4.8,4.8,4.8c2.7,0,4.8-2.2,4.8-4.8&#10;&#9;&#9;S297.3,277.9,294.6,277.9L294.6,277.9z"/>
	<circle class="st3_data-center-46" cx="317" cy="282.7" r="6.7"/>
	<path class="st1_data-center-46" d="M317,291.3c-4.7,0-8.6-3.8-8.5-8.6c0-4.7,3.8-8.6,8.6-8.5c4.7,0,8.5,3.8,8.5,8.6&#10;&#9;&#9;C325.6,287.4,321.8,291.3,317,291.3z M317,277.9c-2.7,0-4.8,2.2-4.8,4.8c0,2.7,2.2,4.8,4.8,4.8c2.7,0,4.8-2.2,4.8-4.8&#10;&#9;&#9;C321.9,280.1,319.7,277.9,317,277.9L317,277.9z"/>
	<path class="st0_data-center-46 targetColor" d="M167,304.6H333c2.4,0,4.3,1.9,4.3,4.3v35.2c0,2.4-1.9,4.3-4.3,4.3H167c-2.4,0-4.3-1.9-4.3-4.3V309&#10;&#9;&#9;C162.7,306.6,164.6,304.6,167,304.6z" style="fill: rgb(104, 225, 253);"/>
	<path class="st1_data-center-46" d="M329.3,350.4H170.7c-5.5,0-9.9-4.5-9.9-9.9v-27.7c0-5.5,4.4-9.9,9.9-9.9h158.5c5.5,0,9.9,4.5,9.9,9.9v27.7&#10;&#9;&#9;C339.2,345.9,334.8,350.4,329.3,350.4z M170.7,306.5c-3.4,0-6.2,2.8-6.2,6.2v27.7c0,3.4,2.8,6.2,6.2,6.2h158.5&#10;&#9;&#9;c3.4,0,6.2-2.8,6.2-6.2v-27.7c0-3.4-2.8-6.2-6.2-6.2L170.7,306.5z"/>
	<circle class="st2_data-center-46" cx="181.6" cy="326.6" r="6.7"/>
	<path class="st1_data-center-46" d="M181.6,335.1c-4.7,0-8.6-3.8-8.6-8.6s3.8-8.6,8.6-8.6c4.7,0,8.6,3.8,8.6,8.6&#10;&#9;&#9;C190.2,331.3,186.4,335.1,181.6,335.1L181.6,335.1z M181.6,321.8c-2.7,0-4.8,2.2-4.8,4.8s2.2,4.8,4.8,4.8c2.7,0,4.8-2.2,4.8-4.8&#10;&#9;&#9;C186.4,323.9,184.3,321.8,181.6,321.8z"/>
	<circle class="st3_data-center-46" cx="272.2" cy="326.6" r="6.7"/>
	<path class="st1_data-center-46" d="M272.2,335.1c-4.7,0-8.6-3.8-8.6-8.6c0-4.7,3.8-8.6,8.6-8.6c4.7,0,8.6,3.8,8.6,8.6c0,0,0,0,0,0&#10;&#9;&#9;C280.8,331.3,277,335.1,272.2,335.1z M272.2,321.8c-2.7,0-4.8,2.2-4.8,4.8c0,2.7,2.2,4.8,4.8,4.8c2.7,0,4.8-2.2,4.8-4.8&#10;&#9;&#9;C277,323.9,274.9,321.8,272.2,321.8z"/>
	<circle class="st3_data-center-46" cx="294.6" cy="326.6" r="6.7"/>
	<path class="st1_data-center-46" d="M294.6,335.1c-4.7,0-8.6-3.8-8.6-8.6c0-4.7,3.8-8.6,8.6-8.6c4.7,0,8.6,3.8,8.6,8.6&#10;&#9;&#9;C303.2,331.3,299.4,335.1,294.6,335.1C294.6,335.1,294.6,335.1,294.6,335.1z M294.6,321.8c-2.7,0-4.8,2.2-4.8,4.8&#10;&#9;&#9;c0,2.7,2.2,4.8,4.8,4.8c2.7,0,4.8-2.2,4.8-4.8C299.5,323.9,297.3,321.8,294.6,321.8z"/>
	<circle class="st3_data-center-46" cx="317" cy="326.6" r="6.7"/>
	<path class="st1_data-center-46" d="M317,335.1c-4.7,0-8.6-3.8-8.6-8.6c0-4.7,3.8-8.6,8.6-8.6c4.7,0,8.6,3.8,8.6,8.6&#10;&#9;&#9;C325.6,331.3,321.8,335.1,317,335.1C317,335.1,317,335.1,317,335.1z M317,321.8c-2.7,0-4.8,2.2-4.8,4.8c0,2.7,2.2,4.8,4.8,4.8&#10;&#9;&#9;c2.7,0,4.8-2.2,4.8-4.8C321.9,323.9,319.7,321.8,317,321.8z"/>
	<path class="st1_data-center-46" d="M159.1,348.5h181.8c2.4,0,4.4,2,4.4,4.4v13.4c0,2.4-2,4.4-4.4,4.4H159.1c-2.4,0-4.4-2-4.4-4.4v-13.4&#10;&#9;&#9;C154.6,350.5,156.6,348.5,159.1,348.5z"/>
	<path class="st1_data-center-46" d="M337,372.7H163c-5.6,0-10.2-4.6-10.2-10.2v-5.7c0-5.6,4.6-10.2,10.2-10.2h174.1c5.6,0,10.2,4.6,10.2,10.2v5.7&#10;&#9;&#9;C347.3,368.1,342.7,372.7,337,372.7C337.1,372.7,337.1,372.7,337,372.7z M163,350.4c-3.5,0-6.4,2.9-6.4,6.4v5.7&#10;&#9;&#9;c0,3.5,2.9,6.4,6.4,6.4h174.1c3.5,0,6.4-2.9,6.4-6.4v-5.7c0-3.5-2.9-6.4-6.4-6.4L163,350.4z"/>
</g>
</svg>