<svg version="1.1" id="Layer_1" xmlns="http://www.w3.org/2000/svg" xmlns:xlink="http://www.w3.org/1999/xlink" x="0px" y="0px" viewBox="0 0 500 500" style="width: 148px;" xml:space="preserve" data-imageid="marketing-campaign-2-11-f8859" imageName="Marketing Campaign 2" class="illustrations_image">
<style type="text/css">
	.st0_marketing-campaign-2-11-f8859{fill:#FF9240;}
	.st1_marketing-campaign-2-11-f8859{fill:url(#SVGID_1_);}
	.st2_marketing-campaign-2-11-f8859{fill:url(#SVGID_00000165931518815809496450000018283861880980660651_);}
	.st3_marketing-campaign-2-11-f8859{fill:#4B1B13;}
	.st4_marketing-campaign-2-11-f8859{fill:#68E1FD;}
	.st5_marketing-campaign-2-11-f8859{fill:#FFFFFF;}
	.st6_marketing-campaign-2-11-f8859{fill:#A2C609;}
	.st7_marketing-campaign-2-11-f8859{fill:#5FAD00;}
	.st8_marketing-campaign-2-11-f8859{opacity:0.73;enable-background:new    ;}
	.st9_marketing-campaign-2-11-f8859{fill:#FFAC73;}
	.st10_marketing-campaign-2-11-f8859{opacity:0.5;fill:#4B1B13;enable-background:new    ;}
	.st11_marketing-campaign-2-11-f8859{opacity:0.7;fill:#FFFFFF;enable-background:new    ;}
	.st12_marketing-campaign-2-11-f8859{fill:#F9847F;}
	.st13_marketing-campaign-2-11-f8859{fill:#F7D600;}
</style>
<g id="background_marketing-campaign-2-11-f8859">
	<path class="st0_marketing-campaign-2-11-f8859" d="M240.4,382l-214-126.5c-6.8-3.8-12.7-10.1-6-14.2l214.8-123.9c3.2-2,8.1-3.3,11.4-1.4l224.7,130.4&#10;&#9;&#9;c6.8,4,8,15,1.2,19L268.6,381.8C259.9,386.8,249.2,386.9,240.4,382z"/>
	
		<linearGradient id="SVGID_1_-marketing-campaign-2-11-f8859" gradientUnits="userSpaceOnUse" x1="424.9902" y1="328.97" x2="438.3102" y2="197.66" gradientTransform="matrix(1 0 0 -1 0 502)">
		<stop offset="0" style="stop-color:#000000"/>
		<stop offset="1" style="stop-color:#FF9240;stop-opacity:0"/>
	</linearGradient>
	<path class="st1_marketing-campaign-2-11-f8859" d="M451.3,276.8c4.2-3,10-5.3,14.1-8.6c-12.1-7.1-29.8-18.2-34.2-20.9l-27.8,15.9l24.5,14.3c0.1,0,5,3.3,9.6,6.4&#10;&#9;&#9;C442.4,281.2,446.1,278.8,451.3,276.8z"/>
	
		<linearGradient id="SVGID_00000006704573140480103240000002938530719223738527_-marketing-campaign-2-11-f8859" gradientUnits="userSpaceOnUse" x1="284.21" y1="314.687" x2="297.53" y2="183.377" gradientTransform="matrix(1 0 0 -1 0 502)">
		<stop offset="0" style="stop-color:#000000"/>
		<stop offset="1" style="stop-color:#FF9240;stop-opacity:0"/>
	</linearGradient>
	<path style="fill:url(#SVGID_00000006704573140480103240000002938530719223738527_);" d="M276.6,234l-50,28.9l38.4,61.7&#10;&#9;&#9;c0.4,0,34.3,3,31-8.4c19.9-11,48-34.8,62.2-43.6C334.8,262.3,300.2,244.9,276.6,234z"/>
</g>
<g id="monitor_marketing-campaign-2-11-f8859">
	<path class="st3_marketing-campaign-2-11-f8859" d="M273.9,232.7l21.7,10.4c2.5,1.2,3.6,4.2,2.4,6.7c-0.4,0.9-1.1,1.7-2,2.2l-51.4,30c-2.3,1.3-5.3,0.6-6.7-1.6&#10;&#9;&#9;L225.4,261"/>
	<path class="st4_marketing-campaign-2-11-f8859 targetColor" d="M155.9,182.5l173-99.7c3.7-2.2,8.5-0.9,10.7,2.9c0.7,1.2,1,2.5,1,3.9v103.7c0,2.3-1.2,4.5-3.2,5.6L153,305.3&#10;&#9;&#9;c-2,1.2-4.6,0.5-5.7-1.5c-0.4-0.6-0.6-1.4-0.6-2.1V198.5C146.7,191.9,150.2,185.8,155.9,182.5z" style="fill: rgb(104, 225, 253);"/>
	<path class="st4_marketing-campaign-2-11-f8859 targetColor" d="M315.8,125.8V70.9c0-1.3-1-2.3-2.3-2.3h-2.2c-1.3,0-2.3,1-2.3,2.3v53.8c0,1.6,0.9,3,2.3,3.7h0.1&#10;&#9;&#9;c1.5,0.8,3.3,0.2,4.1-1.2C315.7,126.8,315.8,126.3,315.8,125.8z" style="fill: rgb(104, 225, 253);"/>
	<path class="st5_marketing-campaign-2-11-f8859" d="M328.9,90.7l-167.7,96.5c-3.6,2.1-5.9,6-5.9,10.2v77.7c0,2.3,1.9,4.2,4.2,4.2c0.7,0,1.5-0.2,2.1-0.6l171-98.2&#10;&#9;&#9;c1.3-0.7,2.1-2.1,2.1-3.6V94.1c0-2.2-1.8-3.9-3.9-3.9C330.2,90.1,329.5,90.3,328.9,90.7z"/>
	<ellipse transform="matrix(0.1891 -0.982 0.982 0.1891 -18.8296 443.463)" class="st3_marketing-campaign-2-11-f8859" cx="259.1" cy="233.1" rx="4.2" ry="3.6"/>
	<path class="st6_marketing-campaign-2-11-f8859" d="M289.8,150.3l-2.1,26c0,0,16.9-2.5,20.9-25.4l-0.1-4.8L289.8,150.3z"/>
	<path class="st0_marketing-campaign-2-11-f8859" d="M289.8,150.3l7.5-23.7c0,0,11.6,2.1,10,21.1L289.8,150.3z"/>
	<path class="st7_marketing-campaign-2-11-f8859" d="M283.2,180.5c-0.9-0.1-1.7-0.3-2.5-0.6c-5.5-1.7-9.6-6.5-11.5-13.4c-1.8-6.5-1.5-14.3,0.9-21.9&#10;&#9;&#9;c5.1-16.4,17.8-26.5,28.8-23.1c5.5,1.7,9.5,6.5,11.5,13.4c1.8,6.5,1.5,14.3-0.9,21.9l0,0c-2.4,7.6-6.5,14.2-11.8,18.6&#10;&#9;&#9;C293,179.4,287.9,181.1,283.2,180.5z M295.7,126.2c-7.7-1-16.9,7.7-20.7,20c-2.1,6.7-2.4,13.4-0.8,19c1.4,5.2,4.3,8.7,8,9.8&#10;&#9;&#9;s8.1-0.1,12.2-3.5c4.5-3.7,8-9.4,10.1-16.1l0,0c2.1-6.7,2.4-13.4,0.8-19c-1.4-5.2-4.3-8.7-8-9.8&#10;&#9;&#9;C296.8,126.4,296.3,126.3,295.7,126.2z"/>
	<path class="st6_marketing-campaign-2-11-f8859" d="M272.9,200l14.8-8.5l23.6-13.5l5.4-3.1c2-1.1,0.2-4.2-1.8-3.1l-14.8,8.5l-23.6,13.6l-5.4,3.1&#10;&#9;&#9;C269.1,198.1,270.9,201.2,272.9,200L272.9,200z"/>
	<path class="st6_marketing-campaign-2-11-f8859" d="M272.9,208.2l14.8-8.5l23.6-13.6l5.4-3.1c2-1.1,0.2-4.2-1.8-3.1l-14.8,8.5L276.5,202l-5.4,3.1&#10;&#9;&#9;C269.1,206.2,270.9,209.3,272.9,208.2L272.9,208.2z"/>
</g>
<g id="plant_marketing-campaign-2-11-f8859">
	<polyline class="st4_marketing-campaign-2-11-f8859 targetColor" points="399.1,231.1 399.1,256.3 439.9,256.3 439.9,231.1 &#9;" style="fill: rgb(104, 225, 253);"/>
	<ellipse class="st4_marketing-campaign-2-11-f8859 targetColor" cx="419.5" cy="231.1" rx="20.4" ry="10" style="fill: rgb(104, 225, 253);"/>
	<ellipse class="st8_marketing-campaign-2-11-f8859" cx="419.5" cy="231.1" rx="20.4" ry="10"/>
	<ellipse class="st4_marketing-campaign-2-11-f8859 targetColor" cx="419.5" cy="257.3" rx="20.4" ry="10" style="fill: rgb(104, 225, 253);"/>
	<path class="st7_marketing-campaign-2-11-f8859" d="M442.3,172.5c-4.3-1.8-10.3-7.6-15.5-7.5c-2,4.9-2.6,10.6-3.1,15.5c-1,8.6-1.2,17.2-0.6,25.8&#10;&#9;&#9;c0.1,1.9,0.3,3.8,0.5,5.7c0,0.6,0.2,1.1,0.5,1.6v20c0,0.4,0.4,0.6,0.7,0.6c0.3,0,0.5-0.3,0.6-0.6v-19.2c2-0.7,4-1.6,5.8-2.7&#10;&#9;&#9;c3.8-2.4,6.7-6,8.2-10.3c3.3-9.2,1.2-19.4,4.3-28.5C443.2,172.8,442.8,172.6,442.3,172.5z"/>
	<path class="st6_marketing-campaign-2-11-f8859" d="M433.5,157.4c-2.4,1.4-4.5,3.5-5.8,6c-0.4,0.6-0.7,1.2-0.9,1.8l-0.2,0.4l0,0c-0.4,1-0.7,2.1-1,3.2&#10;&#9;&#9;c0.5-0.8,1.3-1.4,2.2-1.7c1.1-0.5,2.3-0.6,3.4-0.3c1.1,0.4,2.2,1,3.1,1.7c1.5,0.9,2.9,1.9,4.3,2.8c6.8,4.3,15.8,4.7,21-1.5&#10;&#9;&#9;c0.1-0.2,0.1-0.5,0.2-0.8C460.5,164.6,448.4,148.8,433.5,157.4z"/>
	<path class="st7_marketing-campaign-2-11-f8859" d="M456.6,172.3c0.3-0.2,0.6-0.4,0.8-0.6c0-0.2,0-0.4-0.2-0.5c-4.1-4.2-8.5-8.3-14.1-10.4&#10;&#9;&#9;c-4-1.5-8.3-1.9-12.5-1.2c-0.5,0.5-0.9,1.1-1.3,1.6c4.5-1.5,10.3-0.6,14.4,1.2c4.9,2.1,8.9,5.9,12.5,9.7&#10;&#9;&#9;C456.4,172.2,456.5,172.2,456.6,172.3z"/>
	<path class="st7_marketing-campaign-2-11-f8859" d="M388.1,181.4c-6,3.1-9.6,9.6-9.1,16.3c0.5,12,20.3,0.3,25.6-9.9s6.1,4.3,6.1,4.3"/>
	<path class="st6_marketing-campaign-2-11-f8859" d="M405.9,177.2c-3.7-0.1-7.4,0.4-11,1.5c-2.4,0.6-4.7,1.5-6.9,2.7c1.3,0.8,2.6,1.5,4,2.1c2.5,1,5.1,2.3,6.4,4.6&#10;&#9;&#9;c0.3,0.6,0.6,1.2,0.8,1.8c1.2,4,0.2,8.8,1.8,12.7c1.7,4.1,5,7.5,9.6,7.8c5.6,0.3,8.1-5,9.3-9.7s2.6-11,0.9-15.8&#10;&#9;&#9;C418.7,179.5,411.2,177.5,405.9,177.2z"/>
	<path class="st7_marketing-campaign-2-11-f8859" d="M413.3,196c-2.3-7.6-7.3-14.8-14.6-18.1h-0.3l-0.3,0.1l-1.3,0.3c8.5,3.1,13.8,11.5,16,20.1&#10;&#9;&#9;c2.8,10.9,1.8,22.8,1.9,33.9c0,0.3,0.3,0.6,0.7,0.5c0.3,0,0.5-0.2,0.5-0.5C415.8,220.4,416.9,207.6,413.3,196z"/>
</g>
<g id="character_marketing-campaign-2-11-f8859">
	<polygon class="st4_marketing-campaign-2-11-f8859 targetColor" points="159.5,116.4 159.5,170.8 237.6,126 237.6,73 &#9;" style="fill: rgb(104, 225, 253);"/>
	<polygon class="st5_marketing-campaign-2-11-f8859" points="186.6,111.3 188.4,110.3 191.4,114.4 191.3,108.8 193.2,107.7 193.4,118.3 191.8,119.3 188.6,115 &#10;&#9;&#9;188.8,120.9 186.9,121.9 &#9;"/>
	<polygon class="st5_marketing-campaign-2-11-f8859" points="194.4,107.1 200,104 200.1,106.5 196.4,108.5 196.4,110.1 199.8,108.3 199.8,110.7 196.5,112.5 &#10;&#9;&#9;196.5,114.1 200.2,112.1 200.3,114.6 194.7,117.7 &#9;"/>
	<polygon class="st5_marketing-campaign-2-11-f8859" points="200.6,103.7 202.6,102.6 204,108.1 205.1,101.2 206.8,100.3 208.3,105.8 209.4,98.9 211.3,97.9 &#10;&#9;&#9;209.3,109.8 207.6,110.7 206.1,105.4 204.8,112.3 203.1,113.2 &#9;"/>
	<path class="st5_marketing-campaign-2-11-f8859" d="M183.1,131.6l3.2,9.1l-2.1,1.1l-0.6-1.6l-2.7,1.5l-0.4,2.2l-2,1.1l2.7-12.3L183.1,131.6z M181.6,139l1.6-0.8&#10;&#9;&#9;l-0.9-2.6L181.6,139"/>
	<path class="st5_marketing-campaign-2-11-f8859" d="M175.1,135.8L175.1,135.8c0.9-0.7,2.1-0.5,2.8,0.3c0.1,0.1,0.1,0.2,0.2,0.3l-1.4,2.5c-0.3-0.5-0.9-0.8-1.5-0.5&#10;&#9;&#9;c0,0-0.1,0-0.1,0l0,0c-1,0.5-1.6,2.2-1.6,3.7s0.8,2.5,1.7,2l0,0c0.7-0.5,1.3-1.3,1.5-2.1l1.5,0.8c-0.5,1.6-1.5,3.1-2.9,4l-0.1,0.1&#10;&#9;&#9;c-2,1.1-3.6-0.4-3.7-3.6l0,0C171.5,140.2,173,137,175.1,135.8z"/>
	<polygon class="st5_marketing-campaign-2-11-f8859" points="186.8,129.7 188.8,128.6 190.6,131.8 192.1,126.8 194.2,125.7 194.4,136.3 192.5,137.3 192.4,131.2 &#10;&#9;&#9;190.7,136.4 190.7,136.4 188.8,133.2 188.9,139.3 187.1,140.3 &#9;"/>
	<path class="st5_marketing-campaign-2-11-f8859" d="M205.6,119.4l3.2,9.1l-2.1,1.1l-0.6-1.6l-2.7,1.5l-0.4,2.2l-2,1.1l2.7-12.3L205.6,119.4z M204.1,126.8l1.6-0.8&#10;&#9;&#9;l-0.9-2.6L204.1,126.8"/>
	<path class="st5_marketing-campaign-2-11-f8859" d="M198.4,123.4c1.8-0.9,2.9-0.2,3,2.2c0.1,2.2-0.9,4.3-2.8,5.4h-0.1l-1,0.5l0.1,3l-1.9,1l-0.2-10.5L198.4,123.4z&#10;&#9;&#9; M199.5,126.8L199.5,126.8c0-0.9-0.4-1.2-1.1-0.8l-0.9,0.5l0.1,2.8l0.9-0.5l0,0C199.1,128.3,199.5,127.6,199.5,126.8"/>
	<polygon class="st5_marketing-campaign-2-11-f8859" points="209.3,117.4 211.2,116.4 211.5,127 209.6,128.1 &#9;"/>
	<path class="st5_marketing-campaign-2-11-f8859" d="M216,113.6L216,113.6c0.9-0.6,2.1-0.6,2.9,0l-1.1,2.7c-0.5-0.4-1.2-0.4-1.7-0.1l0,0c-1,0.6-1.7,2.2-1.7,3.9&#10;&#9;&#9;s0.9,2.6,2,2l0,0c0.4-0.2,0.8-0.6,1.1-1v-1.3l-1.4,0.8l-0.1-2.2l3.2-1.7l0.1,4.8c-0.7,1.3-1.7,2.4-2.9,3.2h-0.1&#10;&#9;&#9;c-2.2,1.2-3.8-0.2-3.9-3.4l0,0C212.3,118.1,213.9,114.8,216,113.6z"/>
	<polygon class="st5_marketing-campaign-2-11-f8859" points="220.2,111.6 221.9,110.6 225,114.7 224.8,109.1 226.7,108 227,118.7 225.3,119.6 222.2,115.3 &#10;&#9;&#9;222.3,121.2 220.4,122.2 &#9;"/>
	<path class="st9_marketing-campaign-2-11-f8859" d="M154.5,169c0.2-4.1,0.1-8.2,0.8-12.2c0.8-4.4,2.6-7.3,5.1-10.8c0.2-0.3,0.6-0.9,1-1.6c0.8-1.2,2.4-1.5,3.6-0.8&#10;&#9;&#9;c0,0,0.1,0,0.1,0.1c2.5,1.8,6.4,5,5.7,7.1c-1.1,3.1-3.4-0.9-3.4-0.9s3.5,4.2,2.3,5.6s-3.8-1.7-3.8-1.7s4.2,4.8,2.5,6.2&#10;&#9;&#9;s-4-2.3-4-2.3s1.4,5.2-1.8,6.6v5.3"/>
	<path class="st3_marketing-campaign-2-11-f8859" d="M232.5,142.6c0,0-9.8,35.6-11.2,40.7S210,197.4,210,197.4l-15.2,7.2c-0.3-0.1-0.5-0.2-0.8-0.4&#10;&#9;&#9;c-0.5,7.2-1.4,14.4-2.3,21.6c11.1,0.5,22.1-3,30.9-9.7c21-15.7,23.6-67,23.6-67L232.5,142.6z"/>
	<path class="st3_marketing-campaign-2-11-f8859" d="M194.1,260.5c4.1-2.1,8.1-4.3,12.2-6.4c6.5-3.2,11.2-7.4,17.4-11.1c0.1-0.3,0.2-0.6,0.3-0.9&#10;&#9;&#9;c0.3-2.2,2.8-40.2-6.5-43.6c-9-3.3-19.1-0.1-28.6,3.7c-2,1.4-3.8,3.3-5.1,5.3c-3,4.8-3.1,10.8-3.3,16.3c-0.4,12.1,0,31.4-0.1,43.5&#10;&#9;&#9;C184.1,265.9,190.7,262.3,194.1,260.5z"/>
	<path class="st3_marketing-campaign-2-11-f8859" d="M213.8,177.2c1.6-1.9,2.6-4.2,3-6.6c0.9-4.5-2-10.7-6.8-10.8s-6,2.5-6,2.5s-18-1.4-19.4,12.8l0,0&#10;&#9;&#9;c-0.1,3.9-0.9,18.3,11,20.3s6.1-14,6.1-14"/>
	<path class="st9_marketing-campaign-2-11-f8859" d="M212.7,173.4c0,0,0.9,9.2,1.2,12.6c0.4,3.6-0.2,13.4-6.1,13.7s-12.7-6-12.8-7.6c0,0-6.3-3.1-3.2-6.3&#10;&#9;&#9;s3.8,1.6,3.8,1.6s1.6-2.8,1-10C202.2,177.5,207.8,176.1,212.7,173.4z"/>
	<path class="st9_marketing-campaign-2-11-f8859" d="M196.2,201.6c3.3,2.5,8.2,2.5,12.7,1.4c0.7-0.1,1.2-0.7,1.2-1.4c-0.1-1.4-0.1-2.8-0.1-4.2l-16.3-6.1l2.2,9.8&#10;&#9;&#9;C196,201.3,196.1,201.4,196.2,201.6z"/>
	<path class="st10_marketing-campaign-2-11-f8859" d="M207.2,203.4c0.6-0.1,1.2-0.2,1.8-0.4c0.7-0.1,1.2-0.7,1.2-1.4c0-0.7-0.1-1.4-0.1-2.2&#10;&#9;&#9;c-3.3,0.4-9.2,0.1-12.9-5.7C198.4,198.6,202.3,202.3,207.2,203.4z"/>
	<path d="M194.6,197.6c1.3,0.8,2.6,1.6,4,2.3c1.9,1.1,3.9,2,5.9,2.7c1.7,0.5,4.7,1.3,5.6-0.9c0.1-0.4,0.1-0.8,0-1.2c0-0.5,0-1,0-1.4&#10;&#9;&#9;c0,0-0.1-0.1-0.1-0.1c0.8-0.5,1.5-1.2,2-2c0.1-0.1,0,0,0-0.1l0,0c0,0,4.6,12.1,4,12.7s-5.6-2.1-5.6-2.1s-2,4.4-2.8,4.9&#10;&#9;&#9;s-11.9-8.7-13.5-11.4L194.6,197.6z"/>
	<path class="st11_marketing-campaign-2-11-f8859" d="M194.6,197.6c1.3,0.8,2.6,1.6,4,2.3c1.9,1.1,3.9,2,5.9,2.7c1.7,0.5,4.7,1.3,5.6-0.9c0.1-0.4,0.1-0.8,0-1.2&#10;&#9;&#9;c0-0.5,0-1,0-1.4c0,0-0.1-0.1-0.1-0.1c0.8-0.5,1.5-1.2,2-2c0.1-0.1,0,0,0-0.1l0,0c0,0,4.6,12.1,4,12.7s-5.6-2.1-5.6-2.1&#10;&#9;&#9;s-2,4.4-2.8,4.9s-11.9-8.7-13.5-11.4L194.6,197.6z"/>
	<path class="st12_marketing-campaign-2-11-f8859" d="M213.6,208.3c0.2,0.1,0.8,2.6,0,5c0,0-2,0.9-2.4,0.8s-3.7-3.9-3.6-4.1s2-3.7,2-3.7L213.6,208.3z"/>
	<path class="st12_marketing-campaign-2-11-f8859" d="M220.4,245.6c-0.6-4.6-6.8-32.3-6.8-32.3l-2.4,0.8l-2.4,38.8C212.2,251.1,217.1,247.4,220.4,245.6z"/>
	<path class="st3_marketing-campaign-2-11-f8859" d="M208.3,183.6c-0.2-2.5,1.1-4.7,3-4.9s3.6,1.7,3.9,4.2s-1.1,4.7-3,4.9h-0.1&#10;&#9;&#9;C210.2,187.9,208.6,186.1,208.3,183.6z M211.3,179.4c-1.5,0.1-2.6,2-2.4,4.1l0,0c0.2,2.1,1.6,3.8,3.1,3.6s2.6-2,2.4-4.1&#10;&#9;&#9;S212.9,179.3,211.3,179.4L211.3,179.4z"/>
	<path class="st3_marketing-campaign-2-11-f8859" d="M200.9,189.6c-1.6-1.7-1.9-4.3-0.6-6.4c0.6-0.9,1.5-1.5,2.6-1.6c2.1-0.2,3.9,1.7,4.2,4.2&#10;&#9;&#9;c0.1,1.1-0.1,2.3-0.8,3.3c-0.6,0.9-1.5,1.5-2.5,1.6h-0.1C202.6,190.7,201.6,190.3,200.9,189.6z M202.9,182.3&#10;&#9;&#9;c-0.8,0.1-1.6,0.6-2.1,1.3c-0.5,0.8-0.8,1.9-0.7,2.9l0,0c0.1,1,0.5,1.9,1.2,2.7c1,1.1,2.7,1.2,3.8,0.2c0.2-0.2,0.4-0.4,0.5-0.7&#10;&#9;&#9;c0.5-0.9,0.8-1.9,0.7-2.9c-0.2-2.1-1.7-3.7-3.4-3.6L202.9,182.3z"/>
	
		<rect x="206.6" y="184.5" transform="matrix(0.9716 -0.2367 0.2367 0.9716 -37.8517 54.4045)" class="st3_marketing-campaign-2-11-f8859" width="2.2" height="0.7"/>
	<rect x="197.9" y="184.1" transform="matrix(0.1498 -0.9887 0.9887 0.1498 -16.018 354.689)" class="st3_marketing-campaign-2-11-f8859" width="0.7" height="5"/>
	<path class="st9_marketing-campaign-2-11-f8859" d="M234.3,143.4c0,0,0.4-4.3-1.3-5.9s-3.4-5.7-3.4-5.7h5.4c0,0-3.9-7.2-3.5-10.6s0.4-6.7,2.7-7s7.8,7.8,8.4,11.8&#10;&#9;&#9;c0.7,3.9,0.1,21.4,0.1,21.4"/>
	<path class="st9_marketing-campaign-2-11-f8859" d="M237.2,123.8c0.2-0.5,0.4-1.1,0.5-1.6c0.1-0.8-0.2-1.5-0.8-2c0.5-0.7,0.5-1.7,0-2.4c0.3-1-0.2-2.2-1.3-2.5&#10;&#9;&#9;c-0.2-0.1-0.4-0.1-0.6-0.1c-2.7,0-5.9,2.6-5.7,5.5c0,0.8,0.3,1.5,1,2c-0.7,1.2-1.3,2.5-1.7,3.8c-0.3,0.9,0.2,1.9,1.1,2.2&#10;&#9;&#9;c0,0,0.1,0,0.1,0c-0.7,1.2-1.1,2.4-1.3,3.7c-0.2,1.4,1.4,2.2,2.5,1.9c3.4-0.8,4.3-5.2,6.6-7.4c0.8-0.7,0.8-2,0-2.7&#10;&#9;&#9;C237.7,124.1,237.5,123.9,237.2,123.8z"/>
	<path class="st3_marketing-campaign-2-11-f8859" d="M170.3,189.5c-2.2-3.4-3.8-15-4.6-22.9c-4.6-2.1-9.6-2.3-14.8-1.4c-0.2,10.4,0,28.2,4,37.1&#10;&#9;&#9;c5.8,12.9,32.2,23.6,32.2,23.6l1.8-23.6C189,202.2,173.7,194.8,170.3,189.5z"/>
</g>
<g id="campaign_marketing-campaign-2-11-f8859">
	<path class="st4_marketing-campaign-2-11-f8859 targetColor" d="M348.1,70.1c0,0-34.4-2.2-36.5-1.2s-3.1,4.7-2.3,9.7s17.2,25.5,17.2,25.5" style="fill: rgb(104, 225, 253);"/>
	<path class="st12_marketing-campaign-2-11-f8859" d="M358.2,81.1c-0.1-0.4-3.6-16.3-19.5-9.5c-14.3,6.1-14.7,24.4-13.8,28.9c0.8,3.6,4.5,8.6,11.7,10.4"/>
	<path class="st10_marketing-campaign-2-11-f8859" d="M358.2,81.1c-0.1-0.4-3.6-16.3-19.5-9.5c-14.3,6.1-14.7,24.4-13.8,28.9c0.8,3.6,4.5,8.6,11.7,10.4"/>
	
		<ellipse transform="matrix(0.3975 -0.9176 0.9176 0.3975 122.8744 370.0053)" class="st12_marketing-campaign-2-11-f8859" cx="343.2" cy="91.4" rx="20.6" ry="14.6"/>
	<path class="st5_marketing-campaign-2-11-f8859" d="M327.8,92.4l15.5,4.1l3.4-7.2l-14.1-8.8C332.7,80.4,328.6,86.6,327.8,92.4z"/>
	<ellipse transform="matrix(0.4531 -0.8915 0.8915 0.4531 105.9407 358.108)" class="st13_marketing-campaign-2-11-f8859" cx="344.8" cy="92.7" rx="4" ry="3.2"/>
	<path class="st13_marketing-campaign-2-11-f8859" d="M376.4,71.3l-7,7c-2.4,2.4,1.3,6.2,3.8,3.8l7-7C382.6,72.7,378.9,68.9,376.4,71.3z"/>
	<path class="st13_marketing-campaign-2-11-f8859" d="M390.7,90.6h-13.3c-3.4,0-3.4,5.3,0,5.3h13.3C394.1,95.9,394.1,90.6,390.7,90.6z"/>
	<path class="st13_marketing-campaign-2-11-f8859" d="M378.4,110.4l-6.3-6c-2.5-2.4-6.3,1.4-3.8,3.8l6.3,6C377.1,116.5,380.9,112.7,378.4,110.4z"/>
</g>
</svg>