<svg version="1.1" id="Layer_1" xmlns="http://www.w3.org/2000/svg" xmlns:xlink="http://www.w3.org/1999/xlink" x="0px" y="0px" viewBox="0 0 500 500" style="width: 148px;" xml:space="preserve" data-imageid="team-presentation-22" imageName="Team Presentation" class="illustrations_image">
<style type="text/css">
	.st0_team-presentation-22{fill:#D1D3D4;}
	.st1_team-presentation-22{fill:#231F20;}
	.st2_team-presentation-22{fill:#FFFFFF;}
	.st3_team-presentation-22{fill:#68E1FD;}
	.st4_team-presentation-22{fill:none;}
</style>
<path id="Floor_team-presentation-22" class="st0_team-presentation-22" d="M469,335.5H31c-0.4,0-0.7-0.3-0.7-0.6c0-0.4,0.3-0.7,0.6-0.7c0,0,0,0,0,0h438c0.4,0,0.7,0.3,0.7,0.6&#10;&#9;S469.4,335.5,469,335.5C469,335.5,469,335.5,469,335.5z"/>
<g id="chair_team-presentation-22">
	<path class="st1_team-presentation-22" d="M155.4,352.6h-45.2c-0.3,0-0.6-0.3-0.6-0.6c0,0,0,0,0,0v-8.5c0-0.3,0.3-0.6,0.6-0.6c0,0,0,0,0,0h45.2&#10;&#9;&#9;c0.3,0,0.6,0.3,0.6,0.6c0,0,0,0,0,0v8.5C156,352.3,155.7,352.6,155.4,352.6C155.4,352.6,155.4,352.6,155.4,352.6z M110.8,351.4h44&#10;&#9;&#9;v-7.3h-44V351.4z"/>
	<path class="st2_team-presentation-22" d="M88,292.1c0,0-16.3-93.7-10.3-101.2s81.2-7.3,86.6,0.1s1.2,91.6,1.2,91.6L88,292.1z"/>
	<path class="st1_team-presentation-22" d="M88,292.7c-0.3,0-0.5-0.2-0.6-0.5c-0.7-3.8-16.3-94-10.2-101.7c3.9-4.9,32.3-6.1,50.4-5.7&#10;&#9;&#9;c7.8,0.2,33.6,1.1,37.1,5.8c5.4,7.4,1.4,88.5,1.3,92c0,0.3-0.2,0.5-0.5,0.6L88,292.7L88,292.7z M120.5,186&#10;&#9;&#9;c-21.8,0-39.8,2.2-42.3,5.3c-4.8,6,5.8,73.8,10.3,100.2l76.3-9.4c1.4-29.2,3.1-85.1-1.1-90.7c-2-2.8-16.5-4.9-36.1-5.3&#10;&#9;&#9;C125.2,186,122.8,186,120.5,186z"/>
	<path class="st1_team-presentation-22" d="M96.6,278.6L96.6,278.6c-0.3,0-0.6-0.2-0.6-0.6c0,0,0-0.1,0-0.1c0-0.6,4.2-56.9,0.7-71.4&#10;&#9;&#9;c-3.4-13.9-13.3-12.2-13.7-12.1c-0.3,0.1-0.6-0.1-0.7-0.4c0,0,0,0,0,0c-0.1-0.3,0.1-0.6,0.5-0.7c0.1,0,11.4-2,15.1,13&#10;&#9;&#9;c3.6,14.6-0.5,69.4-0.7,71.7C97.2,278.4,97,278.7,96.6,278.6z"/>
	<path class="st2_team-presentation-22" d="M97.6,282.6h67.9c5.3,0,9.5,4.3,9.5,9.5l0,0c0,5.3-4.3,9.5-9.5,9.5H97.6c-5.3,0-9.5-4.3-9.5-9.5l0,0&#10;&#9;&#9;C88,286.9,92.3,282.6,97.6,282.6z"/>
	<path class="st1_team-presentation-22" d="M165.4,302.3H97.6c-5.6-0.2-10-4.9-9.8-10.4c0.2-5.3,4.5-9.6,9.8-9.8h67.9c5.6-0.2,10.3,4.2,10.4,9.8&#10;&#9;&#9;c0.2,5.6-4.2,10.3-9.8,10.4C165.9,302.3,165.7,302.3,165.4,302.3z M97.6,283.2c-4.9,0.2-8.8,4.3-8.6,9.2c0.2,4.7,3.9,8.5,8.6,8.6&#10;&#9;&#9;h67.9c4.9,0.2,9.1-3.7,9.2-8.6c0.2-4.9-3.7-9.1-8.6-9.2c-0.2,0-0.4,0-0.6,0H97.6z"/>
	<path class="st1_team-presentation-22" d="M134.5,344.1h-6.4c-0.3,0-0.6-0.3-0.6-0.6v-41.8c0-0.3,0.3-0.6,0.6-0.6c0,0,0,0,0,0h6.4c0.3,0,0.6,0.3,0.6,0.6&#10;&#9;&#9;c0,0,0,0,0,0v41.8C135.1,343.8,134.8,344.1,134.5,344.1z M128.7,342.9h5.2v-40.6h-5.2V342.9z"/>
</g>
<g id="Character_male_team-presentation-22">
	<path class="st2_team-presentation-22" d="M116.1,343.5c0,0,0.9,6.7,0,8.5c-2.4,4.7-8,13.5-15.5,11.6s0.9-17.4,0.9-17.4L116.1,343.5z"/>
	<path class="st1_team-presentation-22" d="M102.7,364.6c-0.8,0-1.5-0.1-2.3-0.3c-1.4-0.3-2.5-1.2-3.1-2.5c-2.2-5,3.3-15.3,3.5-15.8&#10;&#9;&#9;c0.1-0.2,0.3-0.3,0.5-0.4l14.6-2.7c0.4-0.1,0.7,0.2,0.8,0.5c0,0,0,0,0,0c0.1,0.7,0.9,6.9-0.1,8.9&#10;&#9;&#9;C114.2,357.1,109.4,364.6,102.7,364.6z M101.9,346.9c-0.8,1.7-5.1,10.3-3.3,14.3c0.4,0.9,1.2,1.6,2.2,1.8&#10;&#9;&#9;c7.1,1.8,12.7-7.3,14.7-11.3c0.6-1.1,0.3-4.9,0-7.4L101.9,346.9z"/>
	<path class="st2_team-presentation-22" d="M201.1,178.5c0.1-0.2,0.3-0.5,0.6-0.6c0.6-0.1,0.7,0.8,0.6,1.3l-1.4,6.6c2.3-4,4.9-7.9,7.8-11.6&#10;&#9;&#9;c0.1-0.2,0.3-0.4,0.6-0.4c0.6,0,0.6,0.9,0.3,1.4c-1.5,3.4-3.4,6.5-5.6,9.4l5.3-7.6c0.5-0.9,1.2-1.6,2-2.3c0.3,0.9,0.1,1.9-0.4,2.6&#10;&#9;&#9;c-1.1,2.3-2.3,4.5-3.8,6.6c1.9-3.1,4.2-6.1,6.7-8.8c0.2,1.8-0.2,3.5-1.3,4.9c-1.1,1.4-2,2.8-2.9,4.4c1.4-2.1,3-4,4.8-5.8&#10;&#9;&#9;c0.3-0.3,0.7-0.6,1.1-0.6c0.5,0.1,0.8,0.5,0.8,1c-0.1,0.5-0.2,0.9-0.5,1.3c-3.7,6.3-8.2,12.1-13.4,17.2c-0.3,0.3-4.6-3.6-5-4&#10;&#9;&#9;c-1-1-1.6-2.4-1.4-3.8C196.3,186.1,199.4,181.9,201.1,178.5z"/>
	<path class="st1_team-presentation-22" d="M202.3,198.5L202.3,198.5c-1.1,0-5.4-4.2-5.4-4.2c-1.2-1.1-1.8-2.7-1.6-4.4c0.3-2.9,2.1-6,3.6-8.6&#10;&#9;&#9;c0.6-1.1,1.2-2.1,1.6-3c0.2-0.5,0.5-0.8,1-0.9c0.4-0.1,0.7,0.1,1,0.3c0.4,0.5,0.5,1.2,0.4,1.8l-0.6,2.7c1.8-2.8,3.7-5.6,5.8-8.2&#10;&#9;&#9;c0.2-0.4,0.7-0.6,1.1-0.7c0.4,0,0.7,0.2,0.9,0.5c0.2,0.3,0.3,0.6,0.2,0.9l0.5-0.4c0.2-0.1,0.4-0.2,0.6-0.1c0.2,0,0.4,0.2,0.4,0.4&#10;&#9;&#9;c0.3,0.6,0.3,1.2,0.2,1.8c0.4-0.5,0.9-1,1.3-1.5c0.2-0.3,0.7-0.3,0.9,0c0.1,0.1,0.2,0.2,0.2,0.4c0.2,0.9,0.2,1.9-0.1,2.8&#10;&#9;&#9;c0.3-0.3,0.8-0.4,1.2-0.4c0.8,0.2,1.4,0.9,1.3,1.7c-0.1,0.6-0.3,1.1-0.6,1.6c-3.7,6.4-8.3,12.2-13.5,17.4&#10;&#9;&#9;C202.6,198.4,202.5,198.5,202.3,198.5z M202.4,197.1L202.4,197.1z M201.6,179c-0.5,0.9-1,1.9-1.6,2.9c-1.5,2.6-3.2,5.5-3.5,8.1&#10;&#9;&#9;c-0.1,1.2,0.4,2.5,1.3,3.3c1.4,1.3,2.8,2.6,4.4,3.7c5.1-5,9.4-10.7,13-16.8c0.2-0.3,0.3-0.6,0.4-1c0-0.1,0-0.3-0.1-0.3&#10;&#9;&#9;c0,0-0.2,0-0.5,0.4c-1.7,1.8-3.3,3.7-4.7,5.8c-0.2,0.3-0.6,0.4-0.9,0.2c-0.3-0.2-0.4-0.5-0.2-0.8c0.5-1.1,1.2-2.2,2-3.1&#10;&#9;&#9;c0.3-0.4,0.7-0.9,1-1.4c0.6-0.9,1-1.8,1.2-2.9c-1.6,1.8-3,3.7-4.4,5.7c-0.4,0.6-0.8,1.2-1.1,1.8c-0.2,0.3-0.6,0.4-0.9,0.2&#10;&#9;&#9;c-0.3-0.2-0.4-0.6-0.2-0.9c0.4-0.6,0.8-1.2,1.1-1.8c1-1.5,1.8-3.1,2.6-4.8c0.1-0.3,0.2-0.5,0.3-0.8c-0.3,0.4-0.6,0.7-0.8,1.1&#10;&#9;&#9;l-2.6,3.7c-0.8,1.4-1.8,2.7-2.8,4c-0.2,0.3-0.6,0.3-0.9,0.1c-0.3-0.2-0.4-0.6-0.1-0.9l2.7-3.9c1.1-1.7,2-3.5,2.9-5.4&#10;&#9;&#9;c-2.8,3.5-5.3,7.3-7.5,11.2c-0.2,0.3-0.6,0.4-0.9,0.3c-0.3-0.1-0.4-0.4-0.3-0.7l1.4-6.6C201.6,179.1,201.6,179.1,201.6,179z&#10;&#9;&#9; M201.1,178.5L201.1,178.5z"/>
	<path class="st3_team-presentation-22 targetColor" d="M143.9,190.6l2.4,1c8.4,3.6,30.2,14.6,31.2,14.2c1.1-0.5,15.9-18.1,15.9-18.1l12.6,10.8&#10;&#9;&#9;c0,0-15.7,28.8-24.5,28.3S149.2,215,149.2,215" style="fill: rgb(104, 225, 253);"/>
	<path class="st3_team-presentation-22 targetColor" d="M126.7,189.4c0,0-19.4,5.2-22.4,12.2s-0.7,68.6-0.7,68.6l55.3-2.9c0,0,0.5-60-2.7-67.9S136.2,187,126.7,189.4z&#10;&#9;&#9;" style="fill: rgb(104, 225, 253);"/>
	<path class="st2_team-presentation-22" d="M126,194.7l16.4,46.4c0,0,2.1-36.6,1.1-43.6S126,194.7,126,194.7z"/>
	<path class="st2_team-presentation-22" d="M144,150.9c1.3,0.9,2.5,2,3.8,2.7c2.3,1.4,4.8,2.1,7.5,2.2c0.7,0-0.2,6-0.3,6.5c-0.6,2.2-1.6,4.2-3.1,6&#10;&#9;&#9;c-1.3,1.6-2.7,3-4.2,4.4c-1.9,1.8-4.9,2.3-7.4,2.7c-2.2,0.4-4.4,1.2-6.6,1.4s-4.8,0.6-6.8-0.1c-2.6-0.9-4.3-4.1-5.4-6.6&#10;&#9;&#9;c-1.4-3-1.7-6.5-0.8-9.7c0.3-1.2,1-2.3,1.9-3.2c1.2-1,2.3-1,3.7-1.1c-0.2-1.7,0.3-2.7,1.7-4c3.3-2.9,9.4-3.6,13.6-2.5&#10;&#9;&#9;C142.4,149.9,143.3,150.4,144,150.9z"/>
	<path class="st1_team-presentation-22" d="M129.7,177.9c-1.1,0-2.1-0.1-3.1-0.4c-2.2-0.8-4.2-3.1-5.8-6.9c-1.5-3.2-1.8-6.8-0.9-10.2&#10;&#9;&#9;c0.4-1.3,1.1-2.6,2.1-3.5c1-0.8,2.2-1.3,3.4-1.3c0-1.5,0.7-3,2-3.9c3.6-3.2,10.1-3.7,14.2-2.6c1,0.3,1.9,0.7,2.7,1.3l0,0&#10;&#9;&#9;c0.5,0.3,1,0.7,1.4,1.1c0.7,0.6,1.5,1.1,2.2,1.6c2.2,1.3,4.6,2,7.2,2.1c0.2,0,0.5,0.1,0.6,0.3c0.8,1-0.3,7-0.3,7&#10;&#9;&#9;c-0.6,2.3-1.7,4.4-3.2,6.3c-1.3,1.6-2.8,3.1-4.3,4.5c-1.9,1.8-4.8,2.4-7.1,2.8l-0.6,0.1c-0.8,0.2-1.6,0.4-2.4,0.6&#10;&#9;&#9;c-1.4,0.4-2.8,0.7-4.2,0.9h-0.5C132.1,177.7,130.9,177.8,129.7,177.9z M137.4,149.9c-3.3,0-6.9,0.9-9.1,2.8&#10;&#9;&#9;c-1.3,1.1-1.6,1.9-1.4,3.4c0.1,0.4-0.2,0.7-0.6,0.8c0,0,0,0,0,0h-0.4c-1.1,0-2.1,0.3-2.9,0.9c-0.8,0.8-1.4,1.8-1.7,2.9&#10;&#9;&#9;c-0.8,3.1-0.5,6.4,0.8,9.3c1.4,3.4,3.1,5.5,5,6.2s4.1,0.3,6,0.1l0.5-0.1c1.3-0.2,2.7-0.5,4-0.8c0.9-0.2,1.7-0.4,2.5-0.6l0.6-0.1&#10;&#9;&#9;c2.3-0.4,4.9-0.9,6.5-2.4c1.5-1.4,2.9-2.8,4.2-4.4c1.4-1.7,2.4-3.7,3-5.8c0.3-1.9,0.5-3.8,0.6-5.7c-2.6-0.2-5.1-0.9-7.4-2.3&#10;&#9;&#9;c-0.8-0.5-1.6-1.1-2.4-1.7c-0.5-0.4-0.9-0.7-1.4-1c-0.7-0.5-1.4-0.9-2.2-1.1C140.1,150,138.8,149.9,137.4,149.9z"/>
	<path class="st2_team-presentation-22" d="M143.6,186.5l0.9,9.6c0,0-4.1,4.9-10.3,3.5s-7.2-5.6-7.2-5.6l-0.3-17.5c0,0,4.6-2.6,3-12.5&#10;&#9;&#9;c0,0,9.6,2.8,18.8,1.4c0,0,0.4,11.3-0.3,16.1S143.6,186.5,143.6,186.5z"/>
	<path class="st1_team-presentation-22" d="M136.4,200.5c-0.8,0-1.6-0.1-2.4-0.3c-6.6-1.4-7.7-5.9-7.7-6.1s0-0.1,0-0.1l-0.3-17.5c0-0.2,0.1-0.5,0.3-0.6&#10;&#9;&#9;c0,0,4.1-2.5,2.7-11.8c0-0.2,0-0.5,0.2-0.6c0.2-0.2,0.4-0.2,0.6-0.1c0.1,0,9.6,2.7,18.5,1.4c0.2,0,0.4,0,0.5,0.1&#10;&#9;&#9;c0.2,0.1,0.2,0.3,0.2,0.5c0,0.5,0.4,11.4-0.3,16.2c-0.5,4-3.2,5.2-4.5,5.5l0.8,9c0,0.2,0,0.4-0.2,0.5&#10;&#9;&#9;C142.8,199,139.6,200.4,136.4,200.5z M127.6,193.9c0.2,0.5,1.3,3.9,6.7,5.1c3.5,0.7,7.1-0.4,9.5-3l-0.9-9.3c0-0.4,0.2-0.7,0.6-0.7&#10;&#9;&#9;c0,0,0,0,0,0c0.1,0,3.4-0.3,3.9-4.5c0.5-4,0.4-12.6,0.3-15.2c-5.8,0.6-11.7,0.1-17.4-1.2c1,8-2.1,11.1-3.1,11.9L127.6,193.9z"/>
	<path class="st2_team-presentation-22" d="M130.2,176.1c-0.2-0.8-0.7-1.6-1.4-2.1c-0.7-0.5-1.4-0.8-2.2-1c-0.4-0.2-0.9-0.2-1.3-0.2&#10;&#9;&#9;c-0.3,0.1-0.6,0.2-0.9,0.3c-0.7,0.3-1.2,0.9-1.5,1.6c-0.1,0.6-0.1,1.2,0,1.8c0.1,0.6,0.3,1.3,0.5,1.9c1.1,2.5,4,3.6,6.5,2.4&#10;&#9;&#9;c0,0,0,0,0,0"/>
	<path class="st1_team-presentation-22" d="M127.9,181.9c-0.7,0-1.3-0.1-1.9-0.4c-1.4-0.5-2.5-1.6-3.1-2.9c-0.3-0.7-0.5-1.3-0.6-2.1&#10;&#9;&#9;c-0.1-0.7-0.1-1.4,0.1-2.1c0.3-0.9,0.9-1.6,1.8-2c0.3-0.2,0.7-0.4,1.1-0.4c0.5,0,1.1,0,1.6,0.2c0.9,0.2,1.7,0.6,2.4,1.1&#10;&#9;&#9;c0.8,0.6,1.4,1.5,1.7,2.5c0.1,0.4-0.1,0.7-0.5,0.8c-0.4,0.1-0.7-0.1-0.8-0.5c0,0,0,0,0,0c-0.2-0.7-0.6-1.3-1.2-1.8&#10;&#9;&#9;c-0.6-0.4-1.3-0.7-2-0.9c-0.3-0.1-0.7-0.2-1-0.2c-0.2,0-0.4,0.1-0.6,0.3c-0.5,0.3-0.9,0.7-1.2,1.2c-0.1,0.5-0.1,1,0,1.4&#10;&#9;&#9;c0.1,0.6,0.2,1.2,0.4,1.7c1,2.1,3.5,3.1,5.6,2.1c0,0,0,0,0,0c0.3-0.2,0.7-0.1,0.9,0.3c0.2,0.3,0.1,0.7-0.3,0.9c0,0,0,0-0.1,0&#10;&#9;&#9;C129.5,181.7,128.7,181.9,127.9,181.9z"/>
	<path class="st1_team-presentation-22" d="M143.8,191.3c-2.3,0.3-4.6-0.4-6.4-1.9c-2.8-2.6-2.6-4.1-2.6-4.1s4.5,2.3,8.5,1.4L143.8,191.3z"/>
	<path class="st1_team-presentation-22" d="M142.7,192c-2.1,0-4.2-0.7-5.8-2.2c-2.9-2.7-2.8-4.5-2.8-4.7c0-0.4,0.4-0.6,0.7-0.6c0.1,0,0.1,0,0.2,0.1&#10;&#9;&#9;c0,0,4.3,2.2,8.1,1.4c0.2,0,0.4,0,0.5,0.1c0.2,0.1,0.2,0.3,0.3,0.5l0.5,4.6c0,0.3-0.2,0.6-0.5,0.7C143.5,192,143.1,192,142.7,192z&#10;&#9;&#9; M135.8,186.4c0.5,0.9,1.2,1.8,2,2.5c1.4,1.3,3.3,1.9,5.2,1.8l-0.3-3.3C140.3,187.7,138,187.3,135.8,186.4L135.8,186.4z"/>
	<path class="st2_team-presentation-22" d="M141.2,170.9c0,0,3.5,4.7,2.8,5.5s-2.9,0.4-2.9,0.4"/>
	<path class="st1_team-presentation-22" d="M142.2,177.7c-0.4,0-0.9,0-1.3-0.1c-0.4-0.1-0.6-0.4-0.5-0.8c0,0,0,0,0,0c0.1-0.4,0.4-0.6,0.8-0.5&#10;&#9;&#9;c0.8,0.1,2,0.2,2.3-0.2c0-0.4-1.3-2.7-2.8-4.7c-0.3-0.2-0.3-0.6-0.1-0.9s0.6-0.3,0.9-0.1c0.1,0.1,0.1,0.1,0.2,0.2&#10;&#9;&#9;c2.5,3.4,3.5,5.5,2.8,6.4C143.9,177.4,143.1,177.7,142.2,177.7z"/>
	
		<ellipse transform="matrix(0.9638 -0.2666 0.2666 0.9638 -40.6917 42.3673)" class="st1_team-presentation-22" cx="135.7" cy="171.1" rx="0.8" ry="1.1"/>
	
		<ellipse transform="matrix(0.9638 -0.2666 0.2666 0.9638 -40.2782 44.6039)" class="st1_team-presentation-22" cx="144.2" cy="170.7" rx="0.8" ry="1.1"/>
	<path class="st1_team-presentation-22" d="M141.3,184.3c-2.6-0.1-4.8-1.7-5.6-4.2c-0.1-0.4,0.1-0.7,0.5-0.8c0,0,0,0,0.1,0c3.4-0.5,8.6-1.2,9-1.3&#10;&#9;&#9;c0.2,0,0.4,0,0.5,0.1c0.2,0.1,0.3,0.3,0.3,0.4c0.2,1.5-0.2,3-1,4.2c-0.8,1-1.9,1.5-3.2,1.6L141.3,184.3z M137.3,180.4&#10;&#9;&#9;c0.8,1.7,2.6,2.7,4.5,2.5c0.9,0,1.7-0.4,2.3-1.1c0.5-0.7,0.8-1.6,0.8-2.5C143.3,179.6,140.2,180,137.3,180.4L137.3,180.4z"/>
	<path class="st2_team-presentation-22" d="M126.6,157.5c0.6,1.1,1.2,2.2,1.7,3.4"/>
	<path class="st1_team-presentation-22" d="M128.2,161.6c-0.3,0-0.5-0.2-0.6-0.4c-0.5-1.1-1-2.3-1.6-3.3c-0.2-0.3-0.1-0.7,0.2-0.9&#10;&#9;&#9;c0.3-0.2,0.7-0.1,0.9,0.2c0.6,1.1,1.2,2.3,1.7,3.5c0.1,0.3,0,0.7-0.4,0.9C128.4,161.5,128.3,161.5,128.2,161.6z"/>
	<path class="st2_team-presentation-22" d="M201.1,185.6c1.6,1.5,2.4,3.7,2,5.9"/>
	<path class="st1_team-presentation-22" d="M203.1,192.2L203.1,192.2c-0.4-0.1-0.7-0.4-0.6-0.8c0,0,0,0,0,0c0.3-2-0.4-3.9-1.8-5.3c-0.3-0.3-0.3-0.7,0-0.9&#10;&#9;&#9;c0.2-0.3,0.7-0.3,0.9-0.1c0,0,0,0,0,0c1.8,1.7,2.7,4.1,2.2,6.5C203.8,192,203.4,192.2,203.1,192.2z"/>
	<path class="st3_team-presentation-22 targetColor" d="M108.8,198.1c-11.6,4.8-31.4,52.3-24.2,57.8c11.2,8.6,49.9-0.1,49.9-0.1l-3.2-15c0,0-24.9,0.7-25.3-4.4&#10;&#9;&#9;s14.5-28.8,12.6-32.3S108.8,198.1,108.8,198.1z" style="fill: rgb(104, 225, 253);"/>
	<path class="st2_team-presentation-22" d="M128.1,248c0,0,6.9,0.4,7.9,0c1.9-0.7,3.4-1.7,5.5-1.8c2.9-0.1,5.7,0.1,8.6,0.5c0.5,0,1.1,0.2,1.1,0.7&#10;&#9;&#9;s-0.5,0.9-1,1l-3.1,1.2l5.8,1.1c1.2,0.2,2.7,0.7,3.1,1.9c0.1,0.9-0.2,1.9-0.9,2.5c-3.3,3.3-9.7,2.7-14,2.8s-8.8,0.2-13.2,0.3h-0.2&#10;&#9;&#9;L128.1,248z"/>
	<path class="st1_team-presentation-22" d="M127.7,258.9c-0.2,0-0.4-0.1-0.5-0.2c-0.1-0.1-0.2-0.3-0.2-0.5l0.4-10.2c0-0.4,0.3-0.7,0.7-0.6c0,0,0,0,0,0&#10;&#9;&#9;c2.5,0.2,5.1,0.2,7.6,0c0.5-0.2,1-0.4,1.5-0.6c1.3-0.7,2.7-1.1,4.2-1.2c2.8-0.1,5.6,0.1,8.4,0.4h0.3c1.3,0.1,1.7,0.8,1.7,1.2&#10;&#9;&#9;s0.1,1.2-1.4,1.8l-0.9,0.4l3.5,0.6c0.9,0.2,3.1,0.6,3.6,2.4c0.2,1.2-0.2,2.4-1.1,3.2c-2.9,2.9-8,3-12.1,3c-0.8,0-1.6,0-2.3,0&#10;&#9;&#9;c-4.1,0.1-8.4,0.2-13.2,0.3L127.7,258.9z M128.7,248.7l-0.3,8.8c4.6,0,8.8-0.1,12.7-0.3c0.7,0,1.5,0,2.3,0c3.8,0,8.6,0,11.2-2.6&#10;&#9;&#9;c0.2-0.2,1-1.1,0.8-1.9s-1-1.1-2.6-1.4l-5.8-1.1c-0.3-0.1-0.5-0.3-0.5-0.6c0-0.3,0.1-0.6,0.4-0.7l3.1-1.2c0.2-0.1,0.4-0.2,0.5-0.3&#10;&#9;&#9;c-0.2,0-0.4-0.1-0.5-0.1h-0.3c-2.7-0.4-5.5-0.5-8.2-0.4c-1.3,0.1-2.6,0.5-3.7,1.1c-0.5,0.2-1,0.4-1.6,0.6&#10;&#9;&#9;C135.3,249,130.9,248.8,128.7,248.7L128.7,248.7z"/>
	<path class="st1_team-presentation-22" d="M115.6,260.9c-0.4,0-0.6-0.3-0.6-0.7c0-0.3,0.2-0.6,0.5-0.6l11.6-2l0.4-13.4l-21.8-2.3c-0.2,0-0.4-0.1-0.5-0.3&#10;&#9;&#9;c-0.1-0.2-0.1-0.4-0.1-0.6l9.8-33.7c0.1-0.3,0.5-0.5,0.9-0.4c0.3,0.1,0.4,0.4,0.4,0.7l-9.6,32.9l21.7,2.2c0.3,0,0.6,0.3,0.6,0.7&#10;&#9;&#9;l-0.4,14.5c0,0.3-0.2,0.6-0.5,0.6l-12.1,2.1L115.6,260.9z"/>
	<path class="st1_team-presentation-22" d="M103.6,270.2c0,0-11.7,27.9-12.2,33.1s10.2,42.9,10.2,42.9s-1.3,4.1,6.5,2.6s8.1-5.4,8.1-5.4&#10;&#9;&#9;s-7.6-34.7-3.9-38.6s18.7-20.5,19.8-20.5s35,10.9,35,10.9s-8,26.8-16.4,48.6l13.6,6.7c0,0,29.6-53,26.5-61s-31.8-22.3-31.8-22.3&#10;&#9;&#9;L103.6,270.2z"/>
	<path class="st2_team-presentation-22" d="M150.6,343.9c0,0-5.7,9.8-4.8,10.4s29.1,7.8,33.1,5.4s-14.7-9.1-14.7-9.1L150.6,343.9z"/>
	<path class="st1_team-presentation-22" d="M175.7,360.8c-9.1,0-30.2-5.9-30.3-6c-0.5-0.4-1.4-1,4.6-11.3c0.2-0.3,0.6-0.4,0.9-0.3l13.6,6.7&#10;&#9;&#9;c3.5,1.2,15.3,5.7,15.6,8.7c0.1,0.6-0.3,1.3-0.9,1.5C178.1,360.7,176.9,360.9,175.7,360.8z M146.4,353.8c2.9,1,28.7,7.4,32.1,5.2&#10;&#9;&#9;c0.1-0.1,0.2-0.2,0.2-0.3c-0.1-1.5-7.8-5.1-14.8-7.6l-13.1-6.4C148.7,348.4,146.6,352.6,146.4,353.8L146.4,353.8z M146.4,354&#10;&#9;&#9;L146.4,354z"/>
</g>
<g id="wallboard_team-presentation-22">
	<path class="st0_team-presentation-22" d="M458.2,280.8H241.6c-0.4,0-0.7-0.3-0.7-0.6V130c0-0.4,0.3-0.7,0.7-0.6h216.6c0.4,0,0.6,0.3,0.6,0.6v150.2&#10;&#9;&#9;C458.9,280.6,458.6,280.8,458.2,280.8z M242.2,279.5h215.4V130.6H242.3L242.2,279.5z"/>
	<path class="st0_team-presentation-22" d="M461.9,286.9h-224c-0.4,0-0.6-0.3-0.6-0.6v-6.1c0-0.4,0.3-0.6,0.6-0.6h224c0.4,0,0.6,0.3,0.6,0.6v6.1&#10;&#9;&#9;C462.6,286.6,462.3,286.9,461.9,286.9z M238.6,285.6h222.7v-4.8H238.6L238.6,285.6z"/>
	<path class="st0_team-presentation-22" d="M335.3,168.3h-73.1c-0.4,0-0.6-0.3-0.6-0.6c0-0.4,0.3-0.7,0.6-0.7l0,0h73.1c0.4,0,0.6,0.3,0.6,0.7&#10;&#9;&#9;C336,168,335.7,168.3,335.3,168.3z"/>
	<path class="st0_team-presentation-22" d="M335.3,183.8h-73.1c-0.4,0-0.6-0.3-0.6-0.7c0-0.4,0.3-0.6,0.6-0.6l0,0h73.1c0.4,0,0.6,0.3,0.6,0.6&#10;&#9;&#9;C336,183.5,335.7,183.8,335.3,183.8z"/>
	<path class="st0_team-presentation-22" d="M335.3,199.4h-73.1c-0.4,0-0.6-0.3-0.6-0.6c0-0.4,0.3-0.7,0.6-0.7l0,0h73.1c0.4,0,0.6,0.3,0.6,0.7&#10;&#9;&#9;C336,199.1,335.7,199.4,335.3,199.4z"/>
	<path class="st0_team-presentation-22" d="M335.3,214.9h-73.1c-0.4,0-0.6-0.3-0.6-0.6c0-0.4,0.3-0.7,0.6-0.7l0,0h73.1c0.4,0,0.6,0.3,0.6,0.7&#10;&#9;&#9;C336,214.6,335.7,214.9,335.3,214.9z"/>
	<path class="st0_team-presentation-22" d="M317.5,230.5h-55.2c-0.4,0-0.6-0.4-0.6-0.7c0-0.3,0.3-0.5,0.6-0.6h55.2c0.4,0,0.6,0.4,0.6,0.7&#10;&#9;&#9;C318,230.2,317.8,230.5,317.5,230.5z"/>
	<path class="st0_team-presentation-22" d="M443.9,186.6h-30.4c-0.4,0-0.6-0.3-0.6-0.6v-25.3c0-0.4,0.3-0.6,0.6-0.6h30.4c0.4,0,0.6,0.3,0.6,0.6v25.3&#10;&#9;&#9;C444.5,186.3,444.2,186.5,443.9,186.6z M414.1,185.2h29.1v-24h-29.1V185.2z"/>
</g>
<g id="Plant_team-presentation-22">
	<path class="st2_team-presentation-22" d="M269.7,319.5c-2.7-2.4-5.8-4.4-9.1-5.9c-0.3,9.7,3.7,18.6,7.3,24.7h11.8"/>
	<path class="st1_team-presentation-22" d="M279.8,339H268c-0.2,0-0.4-0.1-0.6-0.3c-3.5-5.9-7.7-15.1-7.4-25.1c0-0.2,0.1-0.4,0.3-0.5&#10;&#9;&#9;c0.2-0.1,0.4-0.1,0.6,0c3.4,1.5,6.5,3.5,9.3,6c0.3,0.2,0.3,0.6,0.1,0.9c0,0,0,0,0,0c-0.2,0.3-0.6,0.3-0.9,0.1c-2.4-2.1-5.1-4-8-5.4&#10;&#9;&#9;c0,9.1,3.8,17.5,7,23.1h11.5c0.4,0,0.6,0.3,0.6,0.7C280.5,338.7,280.2,339,279.8,339L279.8,339z"/>
	<path class="st2_team-presentation-22" d="M286.7,322.1c-2.9-15.2-14.8-24.7-14.8-24.7c-2.2,7.1-2.9,14.7-2.2,22.1c0.6,6.4,2,12.7,4.1,18.8h12.7"/>
	<path class="st1_team-presentation-22" d="M286.5,339h-12.7c-0.3,0-0.5-0.2-0.6-0.4c-2.1-6.1-3.5-12.5-4.1-19c-0.8-7.5-0.1-15.1,2.2-22.4&#10;&#9;&#9;c0.1-0.3,0.5-0.5,0.8-0.4c0.1,0,0.1,0,0.2,0.1c0.1,0.1,12.1,9.9,15,25.1c0.1,0.4-0.2,0.7-0.5,0.8c0,0,0,0,0,0&#10;&#9;&#9;c-0.4,0.1-0.7-0.2-0.8-0.5c-2.4-12.6-11.2-21.4-13.8-23.7c-1.9,6.8-2.6,13.9-1.8,20.9c0.6,6.2,1.9,12.3,3.9,18.2h12.3&#10;&#9;&#9;c0.4,0,0.6,0.3,0.6,0.7C287.1,338.7,286.8,339,286.5,339L286.5,339z"/>
	<path class="st2_team-presentation-22" d="M293,338.3h-11.3c-0.1-3.3,0.6-8.4,4.3-15c0.2-0.4,0.5-0.9,0.7-1.3c6.5-11,12.5-10.9,12.5-10.9&#10;&#9;&#9;C301.7,322.8,296.4,333.2,293,338.3z"/>
	<path class="st1_team-presentation-22" d="M293,339h-11.3c-0.4,0-0.6-0.3-0.6-0.6c-0.1-3.2,0.6-8.4,4.4-15.3l0.7-1.3c6.6-11.2,12.8-11.3,13.1-11.3&#10;&#9;&#9;c0.3,0,0.6,0.2,0.6,0.5c2.6,11.9-2.9,22.4-6.3,27.6C293.4,338.9,293.2,339,293,339z M282.4,337.7h10.3c3.3-5.1,8.2-14.8,6-25.8&#10;&#9;&#9;c-1.5,0.3-6.3,1.9-11.4,10.5l-0.7,1.2C283.1,329.9,282.4,334.6,282.4,337.7L282.4,337.7z"/>
	<polygon class="st1_team-presentation-22" points="290.9,356.2 268.8,356.2 265.2,338.3 294.5,338.3 &#9;"/>
</g>
<g id="Desk_team-presentation-22">
	<rect x="49.5" y="263.1" class="st2_team-presentation-22" width="11.6" height="93.9"/>
	<path class="st1_team-presentation-22" d="M61,357.6H49.5c-0.3,0-0.6-0.3-0.6-0.6c0,0,0,0,0,0v-93.9c0-0.3,0.3-0.6,0.6-0.6h0H61c0.3,0,0.6,0.3,0.6,0.6&#10;&#9;&#9;l0,0V357C61.7,357.4,61.4,357.6,61,357.6C61.1,357.6,61.1,357.6,61,357.6z M50,356.5h10.4v-92.7H50.1L50,356.5z"/>
	<rect x="206.1" y="263.1" class="st2_team-presentation-22" width="11.6" height="93.9"/>
	<path class="st1_team-presentation-22" d="M217.7,357.6h-11.6c-0.3,0-0.6-0.2-0.6-0.6c0,0,0,0,0,0v-93.9c0-0.3,0.3-0.6,0.6-0.6c0,0,0,0,0,0h11.6&#10;&#9;&#9;c0.3,0,0.6,0.3,0.6,0.6l0,0V357C218.3,357.4,218,357.6,217.7,357.6C217.7,357.6,217.7,357.6,217.7,357.6z M206.7,356.5H217v-92.7&#10;&#9;&#9;h-10.3L206.7,356.5z"/>
	<rect x="39.3" y="254.6" class="st2_team-presentation-22" width="188.6" height="8.5"/>
	<path class="st1_team-presentation-22" d="M227.9,263.7H39.3c-0.3,0-0.6-0.3-0.6-0.6c0,0,0,0,0,0v-8.6c0-0.3,0.3-0.6,0.6-0.6h188.5&#10;&#9;&#9;c0.3,0,0.6,0.3,0.6,0.6v8.6C228.5,263.4,228.2,263.7,227.9,263.7C227.9,263.7,227.9,263.7,227.9,263.7z M39.9,262.5h187.4v-7.4&#10;&#9;&#9;H39.9V262.5z"/>
</g>
<g id="Character_female_team-presentation-22">
	<path class="st2_team-presentation-22" d="M280.3,163.2c0-0.9,0.4-1.7,1-2.3c0.7-0.4,1.5-0.5,2.3-0.3c0.9,0.1,1.8,0.3,2.6,0.7c0.8,0.4,1.2,1.2,1.8,1.9&#10;&#9;&#9;c1.3,1.5,2.9,2.7,4.6,3.6v0.1l30.8,16.6l11-2.4l9.6,12.5c0,0-20.2,3.5-23.5,3.8c-2.5,0.3-34.6-25.7-37.2-26.1c-0.4,0-0.7-0.1-1-0.3&#10;&#9;&#9;c-0.3-0.2-0.6-0.6-0.8-0.9C280.5,167.9,280.1,165.5,280.3,163.2z"/>
	<path class="st1_team-presentation-22" d="M320.7,197.9c-1.5,0-7.8-4.6-20.5-14.1c-7-5.2-15.6-11.7-16.8-11.9c-0.4,0-0.9-0.1-1.3-0.4&#10;&#9;&#9;c-0.4-0.3-0.8-0.7-1-1.2c-1.2-2.2-1.6-4.7-1.4-7.1l0,0c0-1,0.5-2,1.3-2.7c0.8-0.5,1.8-0.6,2.8-0.4c1,0.1,1.9,0.3,2.8,0.7&#10;&#9;&#9;c0.6,0.4,1.1,0.9,1.5,1.4c0.1,0.2,0.3,0.4,0.4,0.6c1.2,1.4,2.7,2.6,4.4,3.4c0.1,0.1,0.2,0.2,0.3,0.3l30.4,16.3l10.8-2.4&#10;&#9;&#9;c0.2,0,0.5,0,0.6,0.2l9.6,12.5c0.1,0.2,0.2,0.4,0.1,0.6c-0.1,0.2-0.2,0.3-0.5,0.4C343.4,194.2,324,197.5,320.7,197.9L320.7,197.9z&#10;&#9;&#9; M280.9,163.3c-0.2,2.2,0.2,4.5,1.2,6.4c0.1,0.3,0.3,0.5,0.5,0.7c0.2,0.1,0.5,0.2,0.8,0.2c1.3,0.2,6.6,4,17.4,12.2&#10;&#9;&#9;c7.8,5.8,18.4,13.8,19.8,13.9c2.8-0.3,18.3-2.9,22.4-3.6l-8.8-11.4l-10.6,2.4c-0.1,0-0.3,0-0.4-0.1l-30.8-16.6&#10;&#9;&#9;c-0.1-0.1-0.2-0.1-0.2-0.3c-1.7-0.9-3.3-2.1-4.5-3.6c-0.2-0.2-0.3-0.4-0.5-0.6c-0.3-0.4-0.7-0.8-1.1-1.1c-0.8-0.3-1.6-0.5-2.4-0.6&#10;&#9;&#9;c-0.6-0.2-1.3-0.1-1.9,0.2C281.2,161.9,280.9,162.6,280.9,163.3L280.9,163.3z"/>
	
		<rect x="278.1" y="160.8" transform="matrix(0.9285 -0.3714 0.3714 0.9285 -39.8517 117.7714)" class="st2_team-presentation-22" width="15.5" height="3.2"/>
	<path class="st1_team-presentation-22" d="M279.3,167.3c-0.1,0-0.2,0-0.2,0c-0.1-0.1-0.3-0.2-0.3-0.3l-1.2-3c-0.1-0.3,0-0.6,0.3-0.8c0,0,0,0,0,0&#10;&#9;&#9;l14.4-5.8c0.1-0.1,0.3-0.1,0.5,0c0.1,0.1,0.3,0.2,0.3,0.3l1.2,3c0.1,0.3,0,0.7-0.3,0.8l-14.4,5.7&#10;&#9;&#9;C279.4,167.3,279.4,167.3,279.3,167.3z M278.9,164.1l0.7,1.9l13.3-5.3l-0.7-1.9L278.9,164.1z"/>
	
		<rect x="277" y="164.3" transform="matrix(0.9285 -0.3714 0.3714 0.9285 -41.6112 115.0297)" class="st2_team-presentation-22" width="1.8" height="2.4"/>
	<path class="st1_team-presentation-22" d="M277.5,167.6c-0.1,0-0.2,0-0.2,0c-0.1-0.1-0.3-0.2-0.3-0.3L276,165c-0.1-0.3,0-0.6,0.3-0.8c0,0,0,0,0,0&#10;&#9;&#9;l1.7-0.7c0.1-0.1,0.3-0.1,0.5,0c0.1,0.1,0.3,0.2,0.3,0.3l0.9,2.3c0.1,0.3,0,0.6-0.3,0.8c0,0,0,0,0,0l-1.6,0.7&#10;&#9;&#9;C277.6,167.6,277.6,167.6,277.5,167.6z M277.3,165.1l0.5,1.2l0.5-0.2l-0.5-1.2L277.3,165.1z"/>
	
		<rect x="273.9" y="166.1" transform="matrix(0.9285 -0.3714 0.3714 0.9285 -42.1327 114.2136)" class="st2_team-presentation-22" width="3.2" height="0.9"/>
	<path class="st1_team-presentation-22" d="M274.2,168.1c-0.2,0-0.5-0.2-0.6-0.4l-0.3-0.8c-0.1-0.1-0.1-0.3,0-0.4c0.1-0.1,0.2-0.3,0.3-0.3l3-1.2&#10;&#9;&#9;c0.1-0.1,0.3-0.1,0.5,0c0.1,0.1,0.3,0.2,0.3,0.3l0.3,0.8c0.1,0.3,0,0.6-0.3,0.8c0,0,0,0,0,0l-2.9,1.1&#10;&#9;&#9;C274.3,168,274.3,168.1,274.2,168.1z"/>
	<path class="st2_team-presentation-22" d="M292.2,166.7l-2.1-3.7c-0.1-0.3-0.3-0.6-0.5-0.8c-0.3-0.3-0.7-0.6-1.1-0.8c-1.6-0.9-3.3-1.5-5-2&#10;&#9;&#9;c-0.2-0.1-0.5-0.1-0.6,0.1c0,0.1,0,0.2,0,0.3c0.2,0.5,0.5,1,1,1.3c1.1,0.9,2.2,1.6,3.5,2.3c-0.3,1.1-0.4,2.4-0.3,3.5&#10;&#9;&#9;c0.2,1.2,0.9,2.3,2,2.8"/>
	<path class="st1_team-presentation-22" d="M288.8,170.3c-0.1,0-0.2,0-0.2-0.1c-1.3-0.7-2.1-1.9-2.3-3.3c-0.2-1.1-0.1-2.2,0.2-3.3&#10;&#9;&#9;c-1.1-0.6-2.2-1.3-3.1-2.1c-0.6-0.4-1-1-1.2-1.7c-0.1-0.5,0.3-1.1,0.8-1.2c0.2,0,0.4,0,0.6,0.1c1.8,0.5,3.5,1.2,5.2,2.1&#10;&#9;&#9;c0.8,0.4,1.5,1,1.9,1.8l2.1,3.7c0.2,0.2,0.2,0.6,0,0.8c-0.2,0.2-0.6,0.2-0.8,0c-0.1-0.1-0.1-0.2-0.2-0.3l-2-3.7&#10;&#9;&#9;c-0.1-0.3-0.3-0.5-0.5-0.7c-0.3-0.3-0.6-0.5-0.9-0.7c-1.5-0.8-3.1-1.5-4.8-1.9c0.2,0.2,0.4,0.5,0.7,0.6c1.1,0.8,2.2,1.6,3.4,2.2&#10;&#9;&#9;c0.2,0.1,0.4,0.4,0.3,0.7c-0.3,1.1-0.4,2.2-0.3,3.3c0.1,1,0.7,1.9,1.6,2.4c0.3,0.1,0.4,0.5,0.3,0.8&#10;&#9;&#9;C289.3,170.2,289.1,170.3,288.8,170.3L288.8,170.3z"/>
	<path class="st2_team-presentation-22" d="M412.3,209.1c0.3,1.2,9.5,18.9,9.5,18.9l17.5-12.1c0.1-2.3,0.1-4.7,0.4-7c0.1-1.2,0.1-2.4,1.6-2.9&#10;&#9;&#9;c2.4-0.7,2.2,3.6,2.6,5.3c0.7-1.5,1.4-3,2.1-4.4c0.5-1.2,1.3-2.4,2.2-3.3c0.8-0.9,2-1.2,3.2-0.9c0.4,0.2,0.8,0.5,1.1,0.9&#10;&#9;&#9;c0.9,0.8,1.6,1.8,1.8,3c0,0.6,0,1.2-0.2,1.7c-0.6,2.9-1.5,6.6-3.3,9c-3.7,4.8-27.3,28.5-34,30.2c-8,2-25-40.7-25-40.7"/>
	<path class="st1_team-presentation-22" d="M416.2,248.3c-8.4,0-23.3-36.8-25-41.1c-0.1-0.3,0-0.6,0.3-0.8c0.3-0.1,0.6,0,0.8,0.3&#10;&#9;&#9;c6.8,17,18.8,41.7,24.3,40.3c6.5-1.6,30-25.4,33.6-30c1.8-2.2,2.5-5.8,3.2-8.6c0.1-0.5,0.2-1.1,0.2-1.6c-0.3-1-0.9-2-1.7-2.6&#10;&#9;&#9;c-0.3-0.3-0.6-0.5-0.9-0.7c-0.9-0.3-1.9,0-2.5,0.8c-0.9,0.9-1.6,2-2.1,3.2c-0.7,1.5-1.4,2.9-2.1,4.4c-0.1,0.2-0.4,0.4-0.6,0.3&#10;&#9;&#9;c-0.3,0-0.5-0.2-0.5-0.5c-0.1-0.4-0.1-0.8-0.2-1.4c-0.1-1.2-0.4-3.1-1-3.5c-0.2-0.1-0.4-0.1-0.6,0c-0.9,0.3-1,0.9-1.1,2.1v0.3&#10;&#9;&#9;c-0.2,1.9-0.3,3.9-0.3,5.9v1.1c0,0.2-0.1,0.4-0.2,0.5l-17.5,12.1c-0.3,0.2-0.6,0.1-0.8-0.1c0,0,0-0.1,0-0.1&#10;&#9;&#9;c-0.9-1.8-9.3-17.8-9.6-19.1c-0.1-0.3,0.1-0.6,0.4-0.7s0.6,0.1,0.7,0.4c0.2,0.9,5.5,11.1,9.2,18.2l16.7-11.6v-0.8c0-2,0.1-4,0.3-6&#10;&#9;&#9;v-0.3c0.1-1.1,0.3-2.6,2-3.1c0.5-0.2,1.1-0.1,1.6,0.2c1,0.6,1.3,2.2,1.5,3.6c0.4-0.9,0.8-1.7,1.2-2.6c0.6-1.3,1.4-2.5,2.3-3.5&#10;&#9;&#9;c1-1.1,2.5-1.5,3.8-1c0.5,0.3,0.9,0.6,1.2,1c1,0.9,1.7,2,2,3.3c0,0.6,0,1.3-0.2,1.9c-0.7,3.1-1.5,6.8-3.4,9.2&#10;&#9;&#9;c-3.7,4.9-27.4,28.7-34.3,30.4C416.7,248.2,416.5,248.3,416.2,248.3z"/>
	<path class="st2_team-presentation-22" d="M382.5,140.3c1.8-2.4,4.7-3.8,7.7-3.8c3,0.1,5.9,1.5,7.8,3.8c1.8,2,2.6,4.6,2.5,7.3c-0.2,2.7-1.6,5.1-3.8,6.6&#10;&#9;&#9;c-1.4,0.9-2.9,1.4-4.6,1.5c-3,0.3-6-0.7-8.3-2.7C381.1,150.2,380.1,143.5,382.5,140.3z"/>
	<path class="st1_team-presentation-22" d="M391.1,156.4c-2.9,0.1-5.6-1-7.7-2.9c-2.9-2.8-4.1-9.8-1.4-13.4l0,0c1.9-2.5,4.9-4,8.1-4h0.1&#10;&#9;&#9;c3.2,0.1,6.2,1.5,8.3,3.9c1.9,2.1,2.8,4.9,2.6,7.8c-0.2,2.9-1.7,5.5-4.1,7.1c-1.5,0.9-3.1,1.4-4.8,1.6&#10;&#9;&#9;C391.8,156.3,391.5,156.4,391.1,156.4z M383,140.7c-2.1,2.9-1.4,9.2,1.3,11.9c2.1,1.9,5,2.9,7.8,2.6c1.5-0.1,3-0.6,4.3-1.4&#10;&#9;&#9;c2.1-1.4,3.4-3.7,3.5-6.2c0.1-2.5-0.7-5-2.4-6.9c-1.8-2.2-4.5-3.5-7.4-3.5h-0.1C387.3,137.1,384.7,138.4,383,140.7L383,140.7z"/>
	<path class="st1_team-presentation-22" d="M393.5,149.8c-1.2-2.6-3-4.9-5.2-6.7c-1.9-1.4-6.4-3.5-8.6-1.3c-0.8,0.7-0.9,1.9-0.2,2.7c0,0,0,0,0,0l6.7,7&#10;&#9;&#9;c1.6,1.7,4.2,4.6,6.9,4.4C396.1,155.7,394.3,151.3,393.5,149.8z"/>
	<path class="st1_team-presentation-22" d="M392.9,156.5c-2.6,0-5.1-2.6-6.7-4.3l-7-7.3c-0.9-1-0.9-2.5,0.1-3.4c0,0,0,0,0.1-0.1c2.6-2.6,7.7,0.1,9.3,1.3&#10;&#9;&#9;c2.3,1.8,4.2,4.2,5.4,6.9c0.6,1.2,1.9,4.2,0.9,5.9c-0.4,0.6-1,1-1.8,1.1L392.9,156.5z M382.3,141.5c-0.8,0-1.5,0.2-2.1,0.8&#10;&#9;&#9;c-0.6,0.5-0.7,1.3-0.2,1.8c0,0,0,0,0,0.1l7,7.3c1.6,1.6,4,4.2,6.1,3.9c0.4,0,0.7-0.2,0.9-0.5c0.5-0.9-0.1-3.1-1-4.8l0,0&#10;&#9;&#9;c-1.1-2.5-2.8-4.7-5-6.4C386.4,142.4,384.4,141.6,382.3,141.5z"/>
	<path class="st2_team-presentation-22" d="M358.1,348.3c0.2,1.1-0.9,13.3-0.9,13.3s-15,2.6-15.1,1.6s-4.5-5.6-4.5-5.6l6.1-2.8l0.5-14.8L358.1,348.3z"/>
	<path class="st1_team-presentation-22" d="M343.4,364c-0.5,0.1-1.1,0-1.5-0.2c-0.2-0.1-0.3-0.3-0.3-0.5c-0.1-0.6-2.4-3.1-4.4-5.2&#10;&#9;&#9;c-0.1-0.1-0.2-0.3-0.2-0.5c0-0.2,0.2-0.4,0.3-0.4l5.7-2.7l0.5-14.5c0-0.2,0.1-0.4,0.3-0.5c0.2-0.1,0.4-0.1,0.6,0l13.9,8.3&#10;&#9;&#9;c0.2,0.1,0.3,0.2,0.3,0.4c0.2,1.1-0.7,11.4-0.9,13.5c0,0.3-0.2,0.5-0.5,0.5C352.2,363.1,346.2,364,343.4,364z M342.6,362.8&#10;&#9;&#9;c1.3,0.2,7.9-0.7,14-1.7c0.4-4.4,0.9-11,0.9-12.5l-12.8-7.6l-0.5,13.8c0,0.2-0.1,0.4-0.3,0.5l-5.3,2.5&#10;&#9;&#9;C340.1,359.5,342.2,361.7,342.6,362.8L342.6,362.8z"/>
	<polygon class="st2_team-presentation-22" points="399.6,349.4 401.8,364.6 391.8,364.6 386,343.3 &#9;"/>
	<path class="st1_team-presentation-22" d="M401.8,365.1h-10c-0.3,0-0.5-0.2-0.6-0.4l-5.8-21.3c-0.1-0.2,0-0.5,0.2-0.6c0.2-0.1,0.4-0.2,0.6-0.1l13.6,6.1&#10;&#9;&#9;c0.2,0.1,0.3,0.3,0.3,0.5l2.2,15.2c0,0.2,0,0.3-0.1,0.5C402.1,365.1,402,365.1,401.8,365.1z M392.3,364h8.8l-2-14.2l-12.1-5.5&#10;&#9;&#9;L392.3,364z"/>
	<path class="st2_team-presentation-22" d="M367.1,140.7c1.6-0.9,3.3-1.6,5.1-1.9c5.9-1.2,13.7,3.7,17.5,7.9c5.7,6.3,7.8,15.9,0.2,21.6&#10;&#9;&#9;c-4.1,3-9.5,3.9-14.6,3.3c-8.2-0.8-17.4-5.3-17.5-14.6c0-4.2,1.4-8.3,3.9-11.7C363.3,143.4,365.1,141.8,367.1,140.7z"/>
	<path class="st1_team-presentation-22" d="M378.2,172.4c-1,0-1.9-0.1-2.9-0.1c-8.3-0.8-18-5.3-18-15.2c0-4.4,1.4-8.6,4-12.1c1.5-1.9,3.4-3.5,5.5-4.7&#10;&#9;&#9;c1.6-0.9,3.4-1.6,5.3-2c6.2-1.3,14.3,4,18.1,8.1s5.7,9.2,5.2,13.7c-0.4,3.6-2.2,6.8-5.1,8.9C386.7,171.2,382.5,172.5,378.2,172.4z&#10;&#9;&#9; M374.2,139.1c-0.6,0-1.2,0.1-1.8,0.2c-1.7,0.4-3.4,1-5,1.9l0,0c-2,1.1-3.7,2.6-5.1,4.4c-2.5,3.3-3.8,7.3-3.8,11.4&#10;&#9;&#9;c0,9.1,9.1,13.3,16.9,14.1c5.6,0.6,10.6-0.6,14.1-3.2c2.7-1.8,4.4-4.8,4.7-8c0.4-4.2-1.5-8.9-4.9-12.8&#10;&#9;&#9;C386.1,143.5,379.7,139.1,374.2,139.1L374.2,139.1z M367.2,140.7L367.2,140.7z"/>
	<polygon class="st2_team-presentation-22" points="350.9,227.7 361,174.6 390.1,176.9 390,242.1 &#9;"/>
	<path class="st1_team-presentation-22" d="M390,242.7c-0.1,0-0.1,0-0.2,0l-39.1-14.4c-0.3-0.1-0.4-0.4-0.4-0.7l10.1-53.1c0-0.3,0.3-0.5,0.6-0.5l29.1,2.3&#10;&#9;&#9;c0.3,0,0.6,0.3,0.5,0.6l-0.1,65.2c0,0.2-0.1,0.4-0.3,0.5C390.2,242.7,390.1,242.7,390,242.7z M351.6,227.3l37.8,14l0.1-63.8&#10;&#9;&#9;l-28-2.2L351.6,227.3z"/>
	<path class="st1_team-presentation-22" d="M393.5,230.8c0,0,4.7,87,8.3,119.4l-15.7,2.5c0,0-7.1-47.3-16.8-83.2l-9.7,83.2l-17.5-2.3l5.2-122.6&#10;&#9;&#9;L393.5,230.8z"/>
	<path class="st3_team-presentation-22 targetColor" d="M418.6,212.2l-21.1,7.4l1.9,31.6l-20.3-0.6l4.1-71l-16.6-0.7c0,0.6-5.3,58.5-7,72.3l-19.8-6.1&#10;&#9;&#9;c0,0,2.2-23.9,8.4-67c3.3-5.3,13.4-6,18.4-5.7c21.1,1.2,13.8,1.2,13.3,1.2c0.4,0,16.8,0.1,24.2,10.1&#10;&#9;&#9;C411.8,194.1,418.6,212.2,418.6,212.2z" style="fill: rgb(104, 225, 253);"/>
	<path class="st2_team-presentation-22" d="M367.8,173l-1.1,9.8c0,0,0.3,5.6,6.5,4.7c3.7-0.6,7-2.8,8.8-6.1c0.4-4,0.7-8.1,1.1-12.1&#10;&#9;&#9;c0.4-4.5,1.3-9.2,1.2-13.7c-4.6,1.8-10.8-3.6-12.5-7.4c-0.6,2.5,0.2,5.1,2,6.8c-2.7-0.7-4.9-2.7-5.9-5.3c-1.3,1.2-2.5,2.4-3.6,3.8&#10;&#9;&#9;c-0.9,1.5-1.6,3.2-2,4.9c-0.7,3-1.1,7.6,0.6,10.4C365.1,172.5,367.8,173,367.8,173z"/>
	<path class="st1_team-presentation-22" d="M371.9,188.2c-1.3,0-2.6-0.4-3.7-1.2c-1.2-1.1-2-2.6-2.1-4.2c0.7-6.2,0.9-8.6,1-9.4c-2-0.8-3.7-2.3-4.8-4.3&#10;&#9;&#9;c-2-3.3-1.1-8.7-0.7-10.8c0.4-1.8,1.1-3.5,2.1-5.1c0,0,3.3-4.1,4.1-4.1l0,0c0.2,0,0.4,0.2,0.5,0.4c0.7,1.7,2,3.2,3.6,4.1&#10;&#9;&#9;c-0.9-1.7-1.2-3.7-0.8-5.6c0.1-0.2,0.3-0.4,0.5-0.4c0.3,0,0.5,0.1,0.6,0.3c1.6,3.5,7.6,8.8,11.7,7.1c0.3-0.1,0.7,0,0.8,0.3&#10;&#9;&#9;c0,0.1,0,0.1,0,0.2c0,3.2-0.2,6.3-0.7,9.5c-0.2,1.4-0.4,2.9-0.5,4.3l-1.1,12.1c0,0.1,0,0.1-0.1,0.2c-2,3.4-5.4,5.8-9.3,6.4&#10;&#9;&#9;C372.8,188.2,372.3,188.2,371.9,188.2z M367.3,182.9c0.2,2.5,2.4,4.4,4.9,4.2c0.3,0,0.6-0.1,1-0.2c3.5-0.6,6.5-2.6,8.3-5.6l1.1-12&#10;&#9;&#9;c0.1-1.4,0.3-2.9,0.5-4.3c0.4-2.8,0.6-5.7,0.7-8.5c-4.2,1-9.1-2.9-11.5-6.3c0.1,1.7,0.8,3.3,2,4.5c0.2,0.2,0.2,0.6,0,0.8&#10;&#9;&#9;c-0.1,0.1-0.3,0.2-0.5,0.2c-2.6-0.7-4.8-2.5-6-4.9c-0.9,0.9-2.7,2.8-2.9,3.1c-0.9,1.5-1.5,3.1-1.9,4.8c-0.5,2-1.3,7,0.5,9.9&#10;&#9;&#9;c2.1,3.3,4.5,3.9,4.5,3.9c0.3,0.1,0.5,0.3,0.5,0.6C368.4,173.1,367.3,182.6,367.3,182.9L367.3,182.9z"/>
	<path class="st2_team-presentation-22" d="M382.2,162.4c0.3-0.7,0.7-1.3,1.3-1.7c0.6-0.4,1.2-0.6,1.9-0.8c0.4-0.1,0.8-0.2,1.1-0.1&#10;&#9;&#9;c0.3,0.1,0.5,0.2,0.7,0.3c0.5,0.3,1,0.8,1.2,1.4c0.1,0.5,0.1,1-0.1,1.5c-0.1,0.5-0.3,1.1-0.5,1.6c-1.1,2-3.6,2.8-5.7,1.7&#10;&#9;&#9;c0,0,0,0,0,0"/>
	<path class="st1_team-presentation-22" d="M384.2,167.4c-0.8,0-1.6-0.2-2.3-0.6c-0.2-0.1-0.3-0.4-0.2-0.7c0,0,0,0,0,0c0.1-0.3,0.5-0.3,0.7-0.2&#10;&#9;&#9;c0,0,0,0,0,0c0.9,0.5,1.9,0.6,2.8,0.3c0.9-0.3,1.7-0.9,2.2-1.8c0.2-0.5,0.4-0.9,0.5-1.4c0.1-0.4,0.1-0.8,0.1-1.3&#10;&#9;&#9;c-0.2-0.5-0.5-0.9-1-1.1c-0.2-0.1-0.3-0.2-0.5-0.3c-0.3,0-0.6,0-0.9,0.1c-0.6,0.1-1.2,0.4-1.8,0.7c-0.5,0.4-0.9,0.9-1.1,1.5&#10;&#9;&#9;c-0.1,0.3-0.4,0.4-0.6,0.3c0,0,0,0,0,0c-0.3-0.1-0.4-0.4-0.3-0.6c0,0,0,0,0,0c0.3-0.8,0.8-1.5,1.5-2c0.6-0.4,1.4-0.7,2.1-0.8&#10;&#9;&#9;c0.4-0.1,0.9-0.2,1.4-0.1c0.3,0.1,0.6,0.2,0.9,0.4c0.6,0.4,1.1,1,1.4,1.7c0.1,0.6,0.1,1.2-0.1,1.8c-0.1,0.6-0.3,1.2-0.6,1.7&#10;&#9;&#9;c-0.6,1.1-1.6,1.9-2.8,2.3C385.1,167.4,384.6,167.4,384.2,167.4z"/>
	<path class="st1_team-presentation-22" d="M367.5,176.9c0,0,3.9,1.6,6.8-0.7c1.6-1.2,2.7-3,2.9-5.1c0,0-5.5,3.3-9.4,2.1L367.5,176.9z"/>
	<path class="st1_team-presentation-22" d="M370.5,178c-1.1,0-2.2-0.2-3.2-0.6c-0.2-0.1-0.4-0.3-0.4-0.6l0.2-3.7c0-0.2,0.1-0.3,0.2-0.4&#10;&#9;&#9;c0.1-0.1,0.3-0.1,0.5-0.1c3.6,1.1,8.9-2,8.9-2.1c0.2-0.1,0.4-0.1,0.6,0c0.2,0.1,0.3,0.3,0.3,0.5c-0.2,2.2-1.3,4.2-3.1,5.5&#10;&#9;&#9;C373.5,177.5,372,178,370.5,178z M368.1,176.5c1,0.3,3.7,0.9,5.8-0.8c1.2-0.9,2-2.2,2.5-3.6c-1.7,0.9-5.2,2.3-8.1,1.8L368.1,176.5z&#10;&#9;&#9;"/>
	<path class="st2_team-presentation-22" d="M368,157.4c0,0-3.8,4.3-3.1,5.2s2.8,0.6,2.8,0.6"/>
	<path class="st1_team-presentation-22" d="M367,163.9c-1,0.1-1.9-0.2-2.6-0.9c-0.6-0.9,0.5-2.9,3.1-6c0.2-0.2,0.5-0.3,0.8-0.1c0,0,0,0,0,0&#10;&#9;&#9;c0.2,0.2,0.3,0.6,0.1,0.8c0,0,0,0,0,0c-1.7,2-3.1,4.1-3,4.6c0.3,0.4,1.5,0.4,2.2,0.3c0.3,0,0.6,0.2,0.6,0.5c0,0.3-0.2,0.6-0.5,0.6&#10;&#9;&#9;C367.6,163.9,367.3,163.9,367,163.9z"/>
	
		<ellipse transform="matrix(0.3318 -0.9433 0.9433 0.3318 100.0017 457.9118)" class="st1_team-presentation-22" cx="373.2" cy="158.4" rx="1.1" ry="0.8"/>
	
		<ellipse transform="matrix(0.3318 -0.9433 0.9433 0.3318 95.0324 449.1129)" class="st1_team-presentation-22" cx="364.6" cy="157.5" rx="1.1" ry="0.8"/>
	<path class="st2_team-presentation-22" d="M363.6,165.2c0,0,2.3,4.6,7.8,1.1"/>
	<path class="st1_team-presentation-22" d="M367.6,168.2c-0.5,0-0.9-0.1-1.4-0.2c-1.3-0.4-2.5-1.3-3.2-2.5c-0.1-0.3,0-0.6,0.2-0.8c0.3-0.1,0.6,0,0.8,0.2&#10;&#9;&#9;c0,0,0,0,0,0c0.5,1,1.4,1.7,2.5,2c1.6,0.3,3.2-0.1,4.5-1c0.3-0.2,0.6-0.1,0.8,0.2c0,0,0,0,0,0c0.2,0.3,0.1,0.6-0.2,0.8&#10;&#9;&#9;C370.5,167.7,369.1,168.2,367.6,168.2z"/>
	<line class="st4_team-presentation-22" x1="398.6" y1="237" x2="396.3" y2="187.5"/>
	<path class="st1_team-presentation-22" d="M398.6,237.6c-0.3,0-0.6-0.3-0.6-0.6l-2.3-49.5c0-0.3,0.2-0.6,0.6-0.6c0.3,0,0.6,0.2,0.6,0.5c0,0,0,0,0,0.1&#10;&#9;&#9;l2.3,49.5C399.2,237.3,398.9,237.6,398.6,237.6C398.6,237.6,398.6,237.6,398.6,237.6L398.6,237.6z"/>
	<path class="st1_team-presentation-22" d="M390,358c0,0,8.9-4.9,12.7,0c2.3,3.3,3.8,7.2,4.1,11.2c0,0-18.8,3.1-18.9,0S390,358,390,358z"/>
	<path class="st1_team-presentation-22" d="M339.6,354l4.7,6.1l15.4-3.1l0.7,8c0,0-32.8,6.8-34.2,3.1S339.6,354,339.6,354z"/>
	<polygon class="st3_team-presentation-22 targetColor" points="357.9,173.1 332.4,178.4 336,198.7 361.7,191.7 &#9;" style="fill: rgb(104, 225, 253);"/>
	<path class="st2_team-presentation-22" d="M443.9,211.5c0,0,5.3,2.2,1.8,6.7"/>
	<path class="st1_team-presentation-22" d="M445.6,218.8c-0.1,0-0.3,0-0.4-0.1c-0.3-0.2-0.3-0.6-0.1-0.8c0.8-0.9,1.2-2,1-3.2c-0.4-1.7-2.5-2.6-2.5-2.6&#10;&#9;&#9;c-0.3-0.1-0.4-0.5-0.3-0.8c0.1-0.3,0.5-0.4,0.8-0.3c0.1,0,2.6,1.1,3.2,3.4c0.3,1.5-0.2,3.1-1.2,4.2&#10;&#9;&#9;C446,218.7,445.8,218.8,445.6,218.8z"/>
</g>
</svg>